<svg viewBox="0 0 300 80" xmlns="http://www.w3.org/2000/svg">
<style type="text/css">
.flagbackground-color{
fill: #039 ;
}
.logotext-color{
fill: #039;
}
.lines-color {
fill: #9d9d9c;
}
.star-color {
fill: #ffde00;
}
</style>
<g id="g-1" transform="matrix(0.461957, 0, 0, 0.461957, -60.684357, -60.458923)">
<g>
<rect x="298" y="192.3" class="flagbackground-color" width="109.2" height="80.2"></rect>
<g>
<polygon class="star-color" points="353.5,204.3 357.7,204.3 354.4,206.9 355.7,211.1 352.3,208.5 349,211.1 350.3,206.9 346.9,204.3 351,204.3 352.3,200.3 "></polygon>
<polygon class="star-color" points="353.7,258 357.9,258 354.5,260.5 355.8,264.5 352.5,262 349.1,264.5 350.4,260.5 347,258 351.2,258 352.5,254 "></polygon>
<polygon class="star-color" points="367,254.4 371.2,254.4 367.8,256.9 369.1,260.9 365.7,258.5 362.4,260.9 363.7,256.9 360.3,254.4 364.5,254.4 365.7,250.5 "></polygon>
<polygon class="star-color" points="367,207.9 371.2,207.9 367.8,210.4 369.1,214.4 365.7,212 362.4,214.4 363.7,210.4 360.3,207.9 364.5,207.9 365.7,204 "></polygon>
<polygon class="star-color" points="376.8,217.7 381,217.7 377.6,220.3 378.9,224.3 375.6,221.8 372.2,224.3 373.5,220.3 370.1,217.7 374.3,217.7 375.6,213.8 "></polygon>
<polygon class="star-color" points="376.8,244.7 381,244.7 377.6,247.2 378.9,251.2 375.6,248.8 372.2,251.2 373.5,247.2 370.1,244.7 374.3,244.7 375.6,240.8 "></polygon>
<polygon class="star-color" points="380.5,231 384.7,231 381.3,233.5 382.6,237.5 379.3,235.1 375.9,237.5 377.2,233.5 373.8,231 378,231 379.3,227.1 "></polygon>
<polygon class="star-color" points="340,207.9 344.2,207.9 340.8,210.5 342.1,214.5 338.8,212 335.4,214.5 336.7,210.5 333.3,207.9 337.5,207.9 338.8,204 "></polygon>
<polygon class="star-color" points="330.4,217.8 334.6,217.8 331.3,220.3 332.6,224.3 329.2,221.8 325.9,224.3 327.2,220.3 323.8,217.8 327.9,217.8 329.2,213.9 "></polygon>
<polygon class="star-color" points="326.9,231 331.1,231 327.7,233.6 329,237.6 325.7,235.1 322.3,237.6 323.6,233.6 320.2,231 324.4,231 325.7,227.1 "></polygon>
<polygon class="star-color" points="330.4,244.7 334.6,244.7 331.3,247.3 332.6,251.3 329.2,248.8 325.9,251.3 327.2,247.3 323.8,244.7 327.9,244.7 329.2,240.8 "></polygon>
<polygon class="star-color" points="340.2,254.4 344.3,254.4 341,257 342.3,261 338.9,258.5 335.6,261 336.9,257 333.5,254.4 337.7,254.4 338.9,250.5 "></polygon>
</g>
<g>
<path class="lines-color" d="M407.2,160.5v14c-26.4-8.3-51.7-12.5-75.7-12.5c-39,0-74.4,11.1-105.4,32.9c-26,18.3-49,44.4-68.5,77.7h-7.2 c41.3-79.8,106.4-123.4,185.3-123.4C358.9,149.1,382.8,152.9,407.2,160.5z"></path>
</g>
<path class="lines-color" d="M295.1,199.9v3.9h-65.2c0.6-0.4,1.1-0.8,1.7-1.2c0.8-0.5,1.5-1.1,2.3-1.6c0,0,0,0,0,0c0.6-0.4,1.2-0.7,1.8-1 H295.1z"></path>
<polygon class="lines-color" points="215.8,215.2 295.1,215.2 295.1,219.1 211.5,219.1 "></polygon>
<polygon class="lines-color" points="200,230.6 295.1,230.6 295.1,234.5 196.5,234.5 "></polygon>
<polygon class="lines-color" points="187.2,245.7 295.1,245.7 295.1,249.6 184.2,249.6 "></polygon>
<path class="lines-color" d="M295.1,260.9v3.9H173.6c0.8-1.3,1.7-2.6,2.6-3.9H295.1z"></path>
</g>
</g>
<g style="" transform="matrix(0.461957, 0, 0, 0.461957, -0.350258, -13.57983)">
<title>en</title>
<g transform="matrix(1, 0, 0, 1, -130.605438, -101.47934)">
<path class="logotext-color" d="M450.5,226.2h-9.3v7.3h10.4v3.7h-15v-24.8H451v3.7h-9.9v6.4h9.3V226.2z"></path>
<path class="logotext-color" d="M471.1,231.9c0,2.1,0.1,3.9,0.1,5.4h-3.9l-0.2-2.7h-0.1c-0.8,1.2-2.5,3.1-5.8,3.1s-6.2-1.9-6.2-7.8v-10.5h4.5 v9.7c0,3,1,4.9,3.3,4.9c1.8,0,3-1.2,3.5-2.4c0.2-0.4,0.3-0.9,0.3-1.4v-10.8h4.5V231.9z"></path>
<path class="logotext-color" d="M476,225.1c0-2.4,0-4.2-0.1-5.8h3.9l0.2,3.4h0.1c0.9-2.5,3-3.8,4.9-3.8c0.4,0,0.7,0,1.1,0.1v4.2 c-0.4-0.1-0.8-0.1-1.4-0.1c-2.1,0-3.6,1.4-4,3.4c-0.1,0.4-0.1,0.9-0.1,1.4v9.3H476V225.1z"></path>
<path class="logotext-color" d="M496.5,237.6c-5,0-9-3.5-9-9.2c0-5.9,3.9-9.5,9.3-9.5c5.3,0,8.9,3.7,8.9,9.2 C505.7,234.7,501.1,237.6,496.5,237.6L496.5,237.6z M496.7,234.3c2.6,0,4.4-2.5,4.4-6.1c0-2.8-1.2-6-4.3-6c-3.2,0-4.5,3.1-4.5,6.1 C492.2,231.7,494,234.3,496.7,234.3L496.7,234.3z"></path>
<path class="logotext-color" d="M509.4,225.3c0-2.4-0.1-4.3-0.1-6h4l0.2,2.8h0.1c1.3-2,3.4-3.2,6.1-3.2c4.1,0,7.5,3.5,7.5,9.1 c0,6.5-4.1,9.6-8.2,9.6c-2.2,0-4.1-1-5-2.4h-0.1v9.3h-4.5V225.3z M513.9,229.7c0,0.4,0,0.8,0.1,1.2c0.5,1.8,2.1,3.2,4,3.2 c2.9,0,4.6-2.4,4.6-5.9c0-3.2-1.5-5.7-4.4-5.7c-1.9,0-3.6,1.4-4.1,3.3c-0.1,0.4-0.1,0.8-0.1,1.1V229.7z"></path>
<path class="logotext-color" d="M534.1,229.5c0.1,3.2,2.6,4.6,5.5,4.6c2.1,0,3.6-0.3,5-0.8l0.7,3.1c-1.5,0.7-3.7,1.1-6.2,1.1 c-5.8,0-9.2-3.6-9.2-9c0-5,3-9.6,8.7-9.6c5.8,0,7.7,4.8,7.7,8.7c0,0.8-0.1,1.5-0.1,1.9H534.1z M542,226.4c0-1.7-0.7-4.4-3.7-4.4 c-2.8,0-4,2.5-4.2,4.4H542z"></path>
<path class="logotext-color" d="M563.8,232.9c0,1.6,0.1,3.2,0.3,4.3H560l-0.3-2h-0.1c-1.1,1.4-2.9,2.4-5.3,2.4c-3.6,0-5.6-2.6-5.6-5.3 c0-4.5,4-6.8,10.6-6.8v-0.3c0-1.2-0.5-3.1-3.6-3.1c-1.8,0-3.6,0.6-4.8,1.3l-0.9-2.9c1.3-0.8,3.6-1.6,6.5-1.6 c5.7,0,7.4,3.6,7.4,7.6V232.9z M559.4,228.5c-3.2,0-6.2,0.6-6.2,3.3c0,1.8,1.1,2.6,2.6,2.6c1.8,0,3.1-1.2,3.6-2.5 c0.1-0.3,0.1-0.7,0.1-1V228.5z"></path>
<path class="logotext-color" d="M568.5,224.6c0-2.1-0.1-3.8-0.1-5.3h3.9l0.2,2.7h0.1c0.8-1.4,2.8-3.1,5.7-3.1c3.1,0,6.4,2,6.4,7.7v10.6h-4.5 v-10.1c0-2.6-1-4.5-3.4-4.5c-1.8,0-3,1.3-3.5,2.6c-0.1,0.4-0.2,0.9-0.2,1.4v10.5h-4.5V224.6z"></path>
<path class="logotext-color" d="M441.2,247.9v24.8h-4.5v-24.8H441.2z"></path>
<path class="logotext-color" d="M446.4,260.1c0-2.1-0.1-3.8-0.1-5.3h3.9l0.2,2.7h0.1c0.8-1.4,2.8-3.1,5.7-3.1c3.1,0,6.4,2,6.4,7.7v10.6h-4.5 v-10.1c0-2.6-1-4.5-3.4-4.5c-1.8,0-3,1.3-3.5,2.6c-0.1,0.4-0.2,0.9-0.2,1.4v10.5h-4.5V260.1z"></path>
<path class="logotext-color" d="M469.7,254.8l2.9,9.1c0.5,1.6,0.9,3,1.2,4.5h0.1c0.3-1.5,0.7-2.9,1.2-4.5l2.9-9.1h4.7l-6.8,17.9h-4.4 l-6.7-17.9H469.7z"></path>
<path class="logotext-color" d="M488.2,265c0.1,3.2,2.6,4.6,5.5,4.6c2.1,0,3.6-0.3,5-0.8l0.7,3.1c-1.5,0.7-3.7,1.1-6.2,1.1 c-5.8,0-9.2-3.6-9.2-9c0-5,3-9.6,8.7-9.6c5.8,0,7.7,4.8,7.7,8.7c0,0.8-0.1,1.5-0.1,1.9H488.2z M496,261.8c0-1.7-0.7-4.4-3.7-4.4 c-2.8,0-4,2.5-4.2,4.4H496z"></path>
<path class="logotext-color" d="M503.8,268.5c1,0.6,2.9,1.3,4.6,1.3c2,0,2.9-0.8,2.9-2c0-1.2-0.7-1.8-2.9-2.6c-3.5-1.2-4.9-3.1-4.9-5.2 c0-3.2,2.6-5.6,6.8-5.6c2,0,3.7,0.5,4.8,1.1l-0.9,3.2c-0.7-0.4-2.2-1-3.8-1c-1.6,0-2.5,0.8-2.5,1.9c0,1.1,0.8,1.7,3.1,2.5 c3.3,1.1,4.7,2.8,4.8,5.4c0,3.3-2.5,5.6-7.3,5.6c-2.2,0-4.1-0.5-5.4-1.2L503.8,268.5z"></path>
<path class="logotext-color" d="M524.5,250.2v4.6h4.3v3.4h-4.3v7.9c0,2.2,0.6,3.3,2.3,3.3c0.8,0,1.2,0,1.8-0.2l0.1,3.4 c-0.7,0.3-1.9,0.5-3.3,0.5c-1.7,0-3-0.6-3.9-1.5c-1-1-1.4-2.7-1.4-5v-8.4h-2.5v-3.4h2.5v-3.3L524.5,250.2z"></path>
<path class="logotext-color" d="M532.2,260.1c0-2.1-0.1-3.8-0.1-5.3h3.9l0.2,2.6h0.1c0.8-1.4,2.5-3,5.5-3c2.4,0,4.2,1.3,5,3.3h0.1 c0.6-1,1.4-1.7,2.2-2.2c1-0.7,2.2-1.1,3.7-1.1c2.9,0,6,2,6,7.8v10.5h-4.4v-9.9c0-3-1-4.7-3.2-4.7c-1.5,0-2.7,1.1-3.2,2.4 c-0.1,0.4-0.2,1-0.2,1.5v10.7h-4.4v-10.4c0-2.5-1-4.3-3.1-4.3c-1.7,0-2.8,1.3-3.3,2.5c-0.1,0.5-0.2,1-0.2,1.5v10.6h-4.4V260.1z"></path>
<path class="logotext-color" d="M566.5,265c0.1,3.2,2.6,4.6,5.5,4.6c2.1,0,3.6-0.3,5-0.8l0.7,3.1c-1.5,0.7-3.7,1.1-6.2,1.1 c-5.8,0-9.2-3.6-9.2-9c0-5,3-9.6,8.7-9.6c5.8,0,7.7,4.8,7.7,8.7c0,0.8-0.1,1.5-0.1,1.9H566.5z M574.4,261.8c0-1.7-0.7-4.4-3.7-4.4 c-2.8,0-4,2.5-4.2,4.4H574.4z"></path>
<path class="logotext-color" d="M582.3,260.1c0-2.1-0.1-3.8-0.1-5.3h3.9l0.2,2.7h0.1c0.8-1.4,2.8-3.1,5.7-3.1c3.1,0,6.4,2,6.4,7.7v10.6H594 v-10.1c0-2.6-1-4.5-3.4-4.5c-1.8,0-3,1.3-3.5,2.6c-0.1,0.4-0.2,0.9-0.2,1.4v10.5h-4.5V260.1z"></path>
<path class="logotext-color" d="M608.3,250.2v4.6h4.3v3.4h-4.3v7.9c0,2.2,0.6,3.3,2.3,3.3c0.8,0,1.2,0,1.8-0.2l0.1,3.4 c-0.7,0.3-1.9,0.5-3.3,0.5c-1.7,0-3-0.6-3.9-1.5c-1-1-1.4-2.7-1.4-5v-8.4h-2.5v-3.4h2.5v-3.3L608.3,250.2z"></path>
<path class="logotext-color" d="M623.8,248.2c1.4-0.3,4-0.6,6.6-0.6c3.3,0,5.4,0.4,7.1,1.6c1.5,0.9,2.6,2.5,2.6,4.7c0,2.3-1.4,4.3-4.1,5.3 v0.1c2.6,0.7,5,2.7,5,6.1c0,2.2-1,3.9-2.4,5.1c-1.8,1.5-4.7,2.3-9.2,2.3c-2.5,0-4.4-0.2-5.5-0.3V248.2z M628.3,258h2.3 c3.2,0,4.9-1.5,4.9-3.6c0-2.4-1.8-3.4-4.6-3.4c-1.3,0-2.1,0.1-2.6,0.2V258z M628.3,269.4c0.6,0.1,1.4,0.1,2.4,0.1 c2.9,0,5.5-1.1,5.5-4.2c0-2.9-2.5-4-5.7-4h-2.2V269.4z"></path>
<path class="logotext-color" d="M658.7,268.3c0,1.6,0.1,3.2,0.3,4.3h-4.1l-0.3-2h-0.1c-1.1,1.4-2.9,2.4-5.3,2.4c-3.6,0-5.6-2.6-5.6-5.3 c0-4.5,4-6.8,10.6-6.8v-0.3c0-1.2-0.5-3.1-3.6-3.1c-1.8,0-3.6,0.6-4.8,1.3l-0.9-2.9c1.3-0.8,3.6-1.6,6.5-1.6 c5.7,0,7.4,3.6,7.4,7.6V268.3z M654.3,263.9c-3.2,0-6.2,0.6-6.2,3.3c0,1.8,1.1,2.6,2.6,2.6c1.8,0,3.1-1.2,3.6-2.5 c0.1-0.3,0.1-0.7,0.1-1V263.9z"></path>
<path class="logotext-color" d="M663.5,260.1c0-2.1-0.1-3.8-0.1-5.3h3.9l0.2,2.7h0.1c0.8-1.4,2.8-3.1,5.7-3.1c3.1,0,6.4,2,6.4,7.7v10.6h-4.5 v-10.1c0-2.6-1-4.5-3.4-4.5c-1.8,0-3,1.3-3.5,2.6c-0.1,0.4-0.2,0.9-0.2,1.4v10.5h-4.5V260.1z"></path>
<path class="logotext-color" d="M689,262.6L689,262.6c0.5-0.7,1-1.5,1.5-2.1l4.4-5.8h5.4l-6.7,7.3l7.6,10.6h-5.5l-5.1-7.9l-1.5,1.8v6.1h-4.5 v-26.1h4.5V262.6z"></path>
</g>
</g>
</svg>