<?xml version="1.0" encoding="utf-8"?>
<!-- Generator: Adobe Illustrator 23.0.1, SVG Export Plug-In . SVG Version: 6.00 Build 0)  -->
<!DOCTYPE svg PUBLIC "-//W3C//DTD SVG 1.1//EN" "http://www.w3.org/Graphics/SVG/1.1/DTD/svg11.dtd" [
	<!ENTITY ns_extend "http://ns.adobe.com/Extensibility/1.0/">
	<!ENTITY ns_ai "http://ns.adobe.com/AdobeIllustrator/10.0/">
	<!ENTITY ns_graphs "http://ns.adobe.com/Graphs/1.0/">
	<!ENTITY ns_vars "http://ns.adobe.com/Variables/1.0/">
	<!ENTITY ns_imrep "http://ns.adobe.com/ImageReplacement/1.0/">
	<!ENTITY ns_sfw "http://ns.adobe.com/SaveForWeb/1.0/">
	<!ENTITY ns_custom "http://ns.adobe.com/GenericCustomNamespace/1.0/">
	<!ENTITY ns_adobe_xpath "http://ns.adobe.com/XPath/1.0/">
]>
<svg version="1.1" id="Livello_1" xmlns:x="&ns_extend;" xmlns:i="&ns_ai;" xmlns:graph="&ns_graphs;"
	 xmlns="http://www.w3.org/2000/svg" xmlns:xlink="http://www.w3.org/1999/xlink" x="0px" y="0px" viewBox="0 0 164.6 52.5"
	 style="enable-background:new 0 0 164.6 52.5;" xml:space="preserve">
<style type="text/css">
	.st0{fill-rule:evenodd;clip-rule:evenodd;fill:#006462;}
	.st1{fill-rule:evenodd;clip-rule:evenodd;fill:#DD052B;}
</style>
<metadata>
	<sfw  xmlns="&ns_sfw;">
		<slices></slices>
		<sliceSourceBounds  bottomLeftOrigin="true" height="52.5" width="164.6" x="-6453.5" y="5664.5"></sliceSourceBounds>
	</sfw>
</metadata>
<g>
	<path class="st0" d="M102.7,40.4l5.4-11.1c0.1-0.1,0.1-0.3,0.1-0.4c0-0.1,0-0.3-0.1-0.4h10.5l-1.1,2.3c-0.1-0.3-0.4-0.5-0.7-0.5
		l-6,0l-1.4,2.8l6.1,0l-1.1,2.3c-0.1-0.3-0.4-0.5-0.7-0.5h-5.2l-2.6,5.3H102.7z"/>
	<path class="st0" d="M130.1,38.1l-1.1,2.3h-11.8l5.4-11.1c0.1-0.1,0.1-0.3,0.1-0.4c0-0.1,0-0.3-0.1-0.4h10.5l-1.1,2.3
		c-0.1-0.3-0.4-0.5-0.7-0.5h-6.1l-1.4,2.8l6.1,0l-1.1,2.3c-0.1-0.3-0.4-0.5-0.7-0.5l-5.2,0l-1.7,3.4l7.6,0
		C129.2,38.5,129.9,38.3,130.1,38.1"/>
	<path class="st0" d="M149.3,40.4l5.4-11.1c0.1-0.1,0.1-0.3,0.1-0.4c0-0.1,0-0.3-0.1-0.4h6.3c1.2,0,3.5,0,3.6,2.8
		c0,2.5-2.5,4-3.5,4.2l1,4.1c0.1,0.4,0.4,0.7,0.6,0.9h-3.4l-1.1-4.9h-3.3l-2.4,4.9H149.3z M161.5,31.3c0-0.4-0.3-0.9-1-0.9h-3.2
		l-1.6,3.2h3C160.4,33.6,161.5,32.5,161.5,31.3"/>
	<path class="st0" d="M132.8,40.4l5.4-11.1c0.1-0.1,0.1-0.3,0.1-0.4c0-0.1,0-0.3-0.1-0.4h6.3c1.2,0,3.5,0,3.6,2.8
		c0,2.5-2.5,4-3.5,4.2l1,4.1c0.1,0.4,0.4,0.7,0.6,0.9h-3.4l-1.1-4.9h-3.3l-2.4,4.9H132.8L132.8,40.4z M145,31.3
		c0-0.4-0.3-0.9-1.1-0.9h-3.2l-1.6,3.2h3C143.9,33.6,145,32.5,145,31.3"/>
	<path class="st0" d="M100,38.1l-1.1,2.3h-8.8l5.4-11.1c0.1-0.1,0.1-0.3,0.1-0.4c0-0.1,0-0.3-0.1-0.4H99l-4.9,10.1l4.7,0
		C99.1,38.5,99.8,38.3,100,38.1"/>
	<path class="st0" d="M57.2,28.4c0.1,0.1,0.1,0.3,0.1,0.4c0,0.2,0,0.3-0.1,0.4l-5.4,11.1h3.1l5.8-12H57.2z"/>
	<path class="st0" d="M64.5,28.4h12l-1.1,2.4c-0.1-0.3-0.4-0.5-0.7-0.5h-3.2l-4.9,10h-3.1l4.9-10h-4c-0.4,0-0.8,0.2-1.1,0.5
		L64.5,28.4z"/>
	<path class="st0" d="M82.8,28.5c0,0.3-0.1,0.6-0.4,1l-9.5,11h2.7l2.2-2.7h5.8l0.1,2.7h2.9l-0.6-12L82.8,28.5z M79.5,35.7l4.1-4.9
		l0.1,4.9H79.5z"/>
	<path class="st0" d="M6.1,49.1L6.1,49.1l-3-0.1v1.1h1.6c-0.1,0.3-0.1,0.4-0.2,0.6c-0.3,0.4-0.8,0.6-1.3,0.6c-1.1,0-1.8-0.8-1.8-2
		c0-1.2,0.8-2,1.8-2c0.3,0,0.6,0.1,0.9,0.2c0.3,0.2,0.4,0.3,0.6,0.5l1.1-0.6c-0.3-0.4-0.4-0.5-0.6-0.7c-0.5-0.4-1.2-0.7-2-0.7
		c-1.8,0-3.1,1.3-3.1,3.2c0,1.9,1.3,3.1,3,3.1c1.2,0,2.2-0.6,2.7-1.6C6,50.4,6.1,49.9,6.1,49.1 M164.6,47.5v-1.2h-3.4v6h3.4v-1.2
		h-2.1v-1.3h2.1v-1.2h-2.1v-1.2H164.6z M141.9,52.3l-2.5-6h-1.4l-2.4,6h1.4l0.4-1.2h2.5l0.5,1.2H141.9z M139.6,50H138l0.8-2.4
		L139.6,50z M145.8,52.3v-1.2h-2v-4.8h-1.3v6H145.8z M147.8,46.3h-1.3v6h1.3V46.3z M154.5,52.3l-2.5-6h-1.4l-2.4,6h1.4l0.4-1.2h2.5
		l0.5,1.2H154.5z M152.2,50h-1.7l0.8-2.4L152.2,50z M160.2,52.3v-6H159l0,4l-2.8-4h-1.2v6h1.2l0-4l2.8,4H160.2z M136,47.5v-1.2h-3.9
		v1.2h1.3v4.8h1.3v-4.8H136z M127.1,49.3c0-1.8-1.4-3.2-3.2-3.2c-1.8,0-3.2,1.4-3.2,3.2c0,1.8,1.3,3.1,3.2,3.1
		C125.8,52.5,127.1,51.2,127.1,49.3 M125.8,49.4c0,1.1-0.8,1.9-1.8,1.9c-1.1,0-1.9-0.8-1.9-1.9c0-1.1,0.8-1.9,1.9-1.9
		C125,47.4,125.8,48.3,125.8,49.4 M131.6,46.3h-1.3v6h1.3V46.3z M120.5,47.5v-1.2h-3.9v1.2h1.3v4.8h1.3v-4.8H120.5z M117,52.3
		l-2.5-6h-1.4l-2.4,6h1.4l0.4-1.2h2.5l0.5,1.2H117z M114.7,50H113l0.8-2.4L114.7,50z M111.1,47.5v-1.2h-3.9v1.2h1.3v4.8h1.3v-4.8
		H111.1z M100,49.3c0-1.8-1.4-3.2-3.2-3.2c-1.8,0-3.2,1.4-3.2,3.2c0,1.8,1.3,3.1,3.2,3.1C98.7,52.5,100,51.2,100,49.3 M98.7,49.4
		c0,1.1-0.8,1.9-1.8,1.9c-1.1,0-1.9-0.8-1.9-1.9c0-1.1,0.8-1.9,1.9-1.9C97.9,47.4,98.7,48.3,98.7,49.4 M106.8,50.5
		c0-1.9-2.4-1.7-2.4-2.6c0-0.3,0.3-0.5,0.6-0.5c0.4,0,0.7,0.3,0.9,0.6l0.8-0.9c-0.5-0.5-1-0.8-1.7-0.8c-1,0-1.9,0.7-1.9,1.7
		c0,1,0.8,1.5,1.6,1.9c0.2,0.1,0.4,0.2,0.5,0.3c0.2,0.1,0.2,0.3,0.2,0.5c0,0.4-0.3,0.7-0.8,0.7c-0.5,0-0.8-0.3-1.1-0.7l-0.9,0.9
		c0.5,0.5,1.1,0.9,1.9,0.9C105.9,52.5,106.8,51.8,106.8,50.5 M93.3,52.3v-1.2h-2.1v-4.8h-1.3v6H93.3z M80.8,49.3
		c0-0.6-0.1-1.1-0.4-1.6c-0.7-1.2-1.9-1.3-3.2-1.3h-1.2v6h1.4c0.9,0,1.6,0,2.3-0.6C80.4,51.2,80.8,50.2,80.8,49.3 M79.5,49.3
		c0,1.2-0.6,2-1.9,2h-0.4v-3.9h0.2c0.5,0,1,0,1.4,0.4C79.3,48.1,79.5,48.7,79.5,49.3 M85,47.5v-1.2h-3.4v6H85v-1.2h-2.1v-1.3H85
		v-1.2h-2.1v-1.2H85z M89.2,52.3v-1.2h-2v-4.8h-1.3v6H89.2z M72.5,47.5v-1.2h-3.4v6h3.4v-1.2h-2.1v-1.3h2.1v-1.2h-2.1v-1.2H72.5z
		 M67.9,46.3h-1.3v6h1.3V46.3z M66.1,46.3h-1.4l-1.5,4.3l-1.5-4.3h-1.4l2.2,6h1.3L66.1,46.3z M60.1,49.3c0-1.8-1.4-3.2-3.2-3.2
		c-1.8,0-3.2,1.4-3.2,3.2c0,1.8,1.3,3.1,3.2,3.1C58.8,52.5,60.1,51.2,60.1,49.3 M58.8,49.4c0,1.1-0.8,1.9-1.8,1.9
		c-1.1,0-1.9-0.8-1.9-1.9c0-1.1,0.8-1.9,1.9-1.9C58,47.4,58.8,48.3,58.8,49.4 M26.2,48.2c0-0.4-0.1-0.8-0.3-1.1
		c-0.4-0.5-1-0.7-1.6-0.7c-0.1,0-0.2,0-0.4,0h-1.8v6h1.3v-2.3h0.6c0.6,0,1.2-0.1,1.6-0.5C26.1,49.2,26.2,48.7,26.2,48.2 M25,48.2
		c0,0.6-0.4,0.8-0.9,0.8h-0.6v-1.5H24c0.1,0,0.3,0,0.4,0C24.8,47.5,25,47.9,25,48.2 M32.8,49.3c0-1.8-1.4-3.2-3.2-3.2
		c-1.8,0-3.2,1.4-3.2,3.2c0,1.8,1.3,3.1,3.2,3.1C31.5,52.5,32.8,51.2,32.8,49.3 M31.5,49.4c0,1.1-0.8,1.9-1.8,1.9
		c-1.1,0-1.9-0.8-1.9-1.9c0-1.1,0.8-1.9,1.9-1.9C30.7,47.4,31.5,48.3,31.5,49.4 M39.5,49.8v-1.2h-2.2v-1.2h2.2v-1.1H36v6h1.3v-2.5
		H39.5z M43.5,47.5v-1.2h-3.4v6h3.4v-1.2h-2.1v-1.3h2.1v-1.2h-2.1v-1.2H43.5z M48.7,52.3L47,49.8c0.2-0.1,0.5-0.1,0.7-0.2
		c0.5-0.3,0.7-0.9,0.7-1.4c0-0.3-0.1-0.7-0.3-1c-0.5-0.7-1.3-0.8-2.1-0.8h-1.7v6h1.3v-2.5l1.6,2.5H48.7z M47.1,48.2
		c0,0.1,0,0.3-0.1,0.4c-0.2,0.3-0.5,0.4-0.9,0.4h-0.5v-1.6H46C46.6,47.4,47.1,47.5,47.1,48.2 M53.5,52.3l-1.7-2.6
		c0.2-0.1,0.5-0.1,0.7-0.2c0.5-0.3,0.7-0.9,0.7-1.4c0-0.3-0.1-0.7-0.3-1c-0.5-0.7-1.3-0.8-2.1-0.8h-1.7v6h1.3v-2.5l1.6,2.5H53.5z
		 M51.9,48.2c0,0.1,0,0.3-0.1,0.4c-0.2,0.3-0.5,0.4-0.9,0.4h-0.5v-1.6h0.4C51.4,47.4,51.9,47.5,51.9,48.2 M21.6,48.2
		c0-0.4-0.1-0.8-0.3-1.1c-0.4-0.5-1-0.7-1.6-0.7c-0.1,0-0.2,0-0.4,0h-1.8v6h1.3v-2.3h0.6c0.6,0,1.2-0.1,1.6-0.5
		C21.4,49.2,21.6,48.7,21.6,48.2 M20.3,48.2c0,0.6-0.4,0.8-0.9,0.8h-0.6v-1.5h0.5c0.1,0,0.3,0,0.4,0C20.2,47.5,20.3,47.9,20.3,48.2
		 M11.3,52.3l-1.7-2.6c0.2-0.1,0.5-0.1,0.7-0.2c0.5-0.3,0.7-0.9,0.7-1.4c0-0.3-0.1-0.7-0.3-1c-0.5-0.7-1.3-0.8-2.1-0.8H6.9v6h1.3
		v-2.5l1.6,2.5H11.3z M9.6,48.2c0,0.1,0,0.3-0.1,0.4C9.3,48.9,9,49,8.6,49H8.2v-1.6h0.4C9.1,47.4,9.6,47.5,9.6,48.2 M16.5,49.7v-3.3
		h-1.3v3.8c0,0.7-0.3,1.2-1.1,1.2c-0.4,0-0.7-0.1-1-0.4C13,50.6,13,50.4,13,50v-3.7h-1.3v3.8c0,0.4,0,0.7,0.2,1.1
		c0.3,0.9,1.3,1.3,2.2,1.3c0.8,0,1.5-0.3,2-0.9C16.5,51,16.5,50.3,16.5,49.7"/>
	<path class="st0" d="M23.5,18l-13,1.3L1.8,36.7c6.9,0,10.5-0.7,14.5-6.4C18,27.8,21.1,22.8,23.5,18"/>
	<path class="st0" d="M58.7,1.9l1-1.9H32.3c-9.3,0-14,3.1-16.9,8.9c-2.2,4.5-2.2,4.5-2.2,4.5h12.4C30.1,5,35.4,2.1,48.6,1.9H58.7z"
		/>
	<path class="st0" d="M57.8,3.8c-16.7,0.1-19.4,2.9-23.2,9.7l18.4,0L57.8,3.8z"/>
	<path class="st1" d="M40.2,27.7c-1.1,6.1-5.9,11-12.1,12.1c0,0-3.7,0.6-6.1,0.6c-2.4,0-22,0-22,0l0.8-1.7c0,0,7.4-0.1,8.4-0.1
		c2.6,0.1,7.2-0.5,7.2-0.5c5.3-0.6,9.4-4,10.7-9l1.5-5c0.8-4.2,4.5-7.3,8.9-7.3l14.2-0.9l-0.7,1.4l-4.4,0.3c-3.3,0.3-5.9,2.8-6.2,6
		L40.2,27.7z"/>
</g>
</svg>
