<svg id="svg" xmlns="http://www.w3.org/2000/svg" xmlns:xlink="http://www.w3.org/1999/xlink" width="400" height="25.857142857142858" viewBox="0, 0, 400,25.857142857142858" version="1.1"><g id="svgg"><path id="path0" d="M125.732 2.405 C 125.480 3.059,125.764 3.374,127.632 4.516 C 130.571 6.314,130.897 6.108,128.583 3.915 C 126.737 2.165,125.978 1.763,125.732 2.405 M90.323 7.292 C 87.397 8.775,87.629 11.999,90.802 13.939 C 95.458 16.787,96.162 17.693,95.136 19.519 C 93.828 21.845,90.155 20.971,88.583 17.959 C 88.080 16.995,87.589 16.656,87.738 17.375 C 87.780 17.581,87.861 18.125,87.917 18.583 C 88.268 21.451,88.428 21.832,88.992 21.135 L 89.287 20.771 90.685 21.138 C 94.086 22.030,96.748 21.076,97.432 18.721 C 98.091 16.456,97.277 15.281,93.418 12.921 C 90.461 11.113,89.741 10.165,90.362 8.899 C 91.435 6.710,94.857 7.432,96.167 10.124 C 96.817 11.460,97.256 11.734,97.103 10.708 C 97.052 10.365,96.923 9.352,96.818 8.458 C 96.623 6.810,96.445 6.516,96.039 7.167 C 95.924 7.350,95.660 7.500,95.451 7.500 C 95.242 7.500,94.645 7.350,94.123 7.167 C 92.743 6.681,91.442 6.724,90.323 7.292 M127.570 7.779 C 127.330 8.313,126.756 9.612,126.296 10.667 C 122.108 20.249,122.040 20.381,121.137 20.742 C 120.777 20.886,120.529 21.078,120.585 21.169 C 120.712 21.375,124.779 21.390,124.906 21.184 C 125.009 21.017,124.628 20.833,124.179 20.833 C 123.245 20.833,123.189 20.212,123.946 18.252 L 124.558 16.667 127.533 16.667 L 130.508 16.667 131.104 17.958 C 132.080 20.078,132.041 20.732,130.930 20.860 C 130.662 20.891,130.411 21.012,130.373 21.129 C 130.318 21.297,130.894 21.332,133.110 21.296 C 135.829 21.251,136.521 21.094,135.342 20.789 C 134.616 20.601,134.126 19.639,129.385 9.097 C 128.246 6.565,128.148 6.494,127.570 7.779 M177.851 7.097 C 170.479 9.080,170.306 19.343,177.614 21.236 C 179.695 21.776,182.981 21.458,184.833 20.538 L 185.750 20.083 185.833 17.400 C 185.923 14.521,186.009 14.228,186.791 14.135 C 187.029 14.107,187.256 13.988,187.294 13.871 C 187.349 13.703,186.780 13.668,184.598 13.704 C 182.166 13.744,180.895 13.970,182.202 14.130 C 183.595 14.300,183.691 14.532,183.630 17.579 L 183.583 19.899 183.018 20.228 C 182.387 20.597,180.374 20.786,179.105 20.595 C 175.884 20.112,173.984 15.806,175.144 11.621 C 176.487 6.779,183.250 6.220,184.853 10.819 C 185.181 11.760,185.500 11.459,185.499 10.208 C 185.496 7.404,185.219 6.344,184.705 7.167 C 184.577 7.373,184.317 7.500,184.025 7.500 C 183.766 7.500,182.967 7.350,182.250 7.167 C 180.737 6.780,179.126 6.754,177.851 7.097 M218.029 7.267 C 215.338 8.608,215.291 11.877,217.938 13.576 C 222.572 16.550,222.522 16.513,222.845 17.224 C 223.469 18.598,223.007 19.961,221.726 20.528 C 219.771 21.392,217.348 20.222,216.238 17.877 C 215.574 16.473,215.358 16.703,215.614 18.542 C 215.732 19.390,215.872 20.402,215.924 20.792 C 216.032 21.587,216.223 21.673,216.664 21.129 L 216.965 20.757 218.381 21.129 C 222.236 22.140,225.333 20.611,225.333 17.697 C 225.333 15.878,224.460 14.891,221.109 12.925 C 218.466 11.374,217.673 10.464,217.926 9.274 C 218.509 6.528,222.955 7.406,224.062 10.485 C 224.436 11.527,224.917 11.679,224.764 10.708 C 224.669 10.102,224.337 7.210,224.335 6.958 C 224.332 6.683,223.849 6.855,223.750 7.167 C 223.678 7.392,223.498 7.500,223.191 7.500 C 222.942 7.500,222.312 7.350,221.790 7.167 C 220.436 6.691,219.114 6.726,218.029 7.267 M333.146 7.218 C 329.629 8.417,327.782 11.908,328.575 15.855 C 330.291 24.386,342.894 22.974,342.891 14.250 C 342.890 8.921,338.161 5.509,333.146 7.218 M388.083 7.067 C 383.806 8.426,381.827 12.783,383.487 17.185 C 385.600 22.787,394.278 23.030,396.783 17.557 C 399.495 11.634,394.118 5.151,388.083 7.067 M2.833 7.333 C 2.833 7.425,3.054 7.500,3.324 7.500 C 3.602 7.500,4.017 7.674,4.282 7.902 L 4.750 8.304 4.833 13.277 L 4.917 18.250 5.417 19.154 C 6.398 20.928,7.947 21.589,10.821 21.463 C 15.152 21.271,15.858 20.154,16.006 13.250 C 16.121 7.841,16.219 7.500,17.649 7.500 C 17.831 7.500,18.027 7.425,18.083 7.333 C 18.150 7.225,17.280 7.167,15.593 7.167 C 12.993 7.167,12.399 7.300,13.694 7.593 C 15.045 7.899,15.083 8.048,15.083 13.054 C 15.083 19.488,14.443 20.662,10.936 20.666 C 7.493 20.669,6.961 19.593,7.034 12.770 C 7.089 7.615,7.065 7.716,8.310 7.549 C 9.881 7.338,8.807 7.167,5.917 7.167 C 3.972 7.167,2.833 7.228,2.833 7.333 M18.917 7.333 C 18.973 7.425,19.186 7.500,19.389 7.500 C 19.591 7.500,20.041 7.733,20.387 8.019 L 21.016 8.538 20.966 14.152 C 20.910 20.565,20.928 20.477,19.594 20.813 C 18.174 21.171,18.748 21.333,21.431 21.333 C 23.434 21.333,24.012 21.286,23.958 21.125 C 23.920 21.010,23.745 20.894,23.570 20.866 C 22.040 20.622,22.000 20.463,22.000 14.699 C 22.000 10.184,22.014 9.962,22.292 10.216 C 22.452 10.363,24.646 12.958,27.167 15.983 C 29.688 19.008,31.844 21.487,31.958 21.491 C 32.121 21.498,32.167 20.168,32.168 15.375 C 32.169 7.984,32.270 7.500,33.815 7.500 C 33.998 7.500,34.193 7.425,34.250 7.333 C 34.317 7.225,33.446 7.167,31.760 7.167 C 30.142 7.167,29.167 7.229,29.167 7.333 C 29.167 7.425,29.375 7.500,29.630 7.500 C 31.025 7.500,31.181 8.087,31.128 13.118 L 31.083 17.319 28.500 14.204 C 27.079 12.491,25.180 10.206,24.280 9.128 L 22.644 7.167 20.729 7.167 C 19.494 7.167,18.850 7.226,18.917 7.333 M35.000 7.333 C 35.000 7.425,35.303 7.500,35.674 7.500 C 36.168 7.500,36.458 7.610,36.758 7.909 L 37.167 8.318 37.167 14.065 C 37.167 20.459,37.147 20.598,36.216 20.756 C 33.986 21.132,34.693 21.333,38.250 21.333 C 41.291 21.333,42.289 21.180,41.042 20.905 C 39.273 20.515,39.304 20.647,39.367 13.780 L 39.417 8.304 39.884 7.902 C 40.183 7.645,40.560 7.500,40.926 7.500 C 41.242 7.500,41.500 7.425,41.500 7.333 C 41.500 7.228,40.306 7.167,38.250 7.167 C 36.194 7.167,35.000 7.228,35.000 7.333 M43.083 7.510 C 43.962 7.940,44.120 8.208,46.376 13.083 C 47.437 15.375,48.686 18.055,49.152 19.040 C 49.619 20.024,50.000 20.896,50.000 20.978 C 50.000 21.171,50.484 21.572,50.589 21.466 C 50.634 21.421,51.127 20.267,51.685 18.901 C 54.410 12.227,54.900 11.024,55.197 10.265 C 55.887 8.510,56.617 7.500,57.198 7.500 C 57.364 7.500,57.500 7.425,57.500 7.333 C 57.500 7.231,56.667 7.167,55.333 7.167 C 54.000 7.167,53.167 7.231,53.167 7.333 C 53.167 7.425,53.377 7.500,53.635 7.500 C 54.781 7.500,54.972 8.253,54.274 10.026 C 53.141 12.903,51.934 16.012,51.631 16.833 C 51.151 18.131,51.118 18.133,50.517 16.900 C 46.489 8.639,46.146 7.500,47.689 7.500 C 47.941 7.500,48.193 7.425,48.250 7.333 C 48.317 7.224,47.323 7.170,45.385 7.175 L 42.417 7.183 43.083 7.510 M58.500 7.333 C 58.500 7.425,58.721 7.500,58.991 7.500 C 59.269 7.500,59.684 7.674,59.949 7.902 L 60.417 8.305 60.417 14.210 C 60.417 20.773,60.454 20.557,59.290 20.787 C 58.916 20.861,58.578 21.015,58.541 21.128 C 58.487 21.288,59.786 21.333,64.460 21.333 L 70.448 21.333 70.891 19.859 C 71.614 17.449,71.438 17.057,70.359 18.672 C 69.398 20.110,68.662 20.397,65.731 20.474 C 62.416 20.561,62.649 20.813,62.705 17.200 L 62.750 14.250 65.120 14.250 C 67.796 14.250,67.973 14.322,68.410 15.593 C 68.857 16.895,69.000 16.473,69.000 13.847 C 69.000 11.279,68.853 10.755,68.482 11.994 C 68.097 13.280,67.799 13.409,65.070 13.474 L 62.667 13.531 62.667 10.769 L 62.667 8.006 63.085 7.901 C 63.315 7.844,64.571 7.826,65.877 7.863 C 68.791 7.944,69.117 8.070,69.583 9.291 C 70.096 10.633,70.333 10.435,70.333 8.667 L 70.333 7.167 64.417 7.167 C 60.583 7.167,58.500 7.225,58.500 7.333 M72.167 7.323 C 72.167 7.420,72.383 7.500,72.648 7.500 C 72.913 7.500,73.307 7.643,73.523 7.818 L 73.917 8.137 73.964 14.043 C 74.018 20.649,74.031 20.566,72.842 20.809 C 71.274 21.130,72.167 21.333,75.143 21.333 C 78.502 21.333,79.170 21.144,77.207 20.749 C 76.410 20.588,76.333 20.289,76.333 17.344 L 76.333 14.667 76.958 14.674 C 77.569 14.682,77.646 14.760,80.235 18.008 L 82.886 21.333 84.623 21.333 C 86.388 21.333,86.878 21.101,85.736 20.805 C 85.140 20.650,84.618 20.117,82.017 17.002 C 79.668 14.190,79.769 14.439,80.875 14.186 C 84.583 13.337,84.950 8.849,81.417 7.561 C 80.428 7.200,72.167 6.988,72.167 7.323 M99.583 7.333 C 99.640 7.425,99.948 7.500,100.267 7.500 C 100.662 7.500,100.980 7.631,101.258 7.909 L 101.667 8.318 101.667 14.231 C 101.667 20.652,101.680 20.555,100.738 20.750 C 100.516 20.796,100.143 20.873,99.910 20.922 C 98.746 21.164,99.951 21.333,102.843 21.333 C 106.297 21.333,106.906 21.158,104.874 20.749 C 103.930 20.559,103.917 20.468,103.917 14.111 L 103.917 8.304 104.384 7.902 C 104.683 7.645,105.059 7.500,105.426 7.500 C 105.742 7.500,106.000 7.425,106.000 7.333 C 106.000 7.228,104.802 7.167,102.740 7.167 C 100.609 7.167,99.516 7.224,99.583 7.333 M107.000 8.396 C 107.000 9.072,106.952 9.867,106.892 10.163 C 106.719 11.028,107.309 10.761,107.618 9.833 C 108.095 8.400,108.795 8.000,110.828 8.000 L 112.167 8.000 112.164 13.875 C 112.162 20.968,112.223 20.678,110.680 20.867 C 110.458 20.894,110.245 21.010,110.207 21.125 C 110.154 21.287,110.850 21.333,113.319 21.333 C 116.297 21.333,117.281 21.179,116.042 20.905 C 114.254 20.511,114.339 20.862,114.336 13.859 L 114.333 7.969 115.988 8.026 C 118.026 8.097,118.426 8.329,118.913 9.722 C 119.518 11.453,119.899 10.405,119.561 7.940 L 119.455 7.167 113.227 7.167 L 107.000 7.167 107.000 8.396 M142.333 7.333 C 142.333 7.425,142.554 7.500,142.824 7.500 C 143.103 7.500,143.517 7.674,143.782 7.902 L 144.250 8.305 144.250 14.111 C 144.250 20.625,144.260 20.563,143.137 20.785 C 140.642 21.278,145.397 21.550,149.943 21.174 C 154.580 20.790,157.095 18.261,157.075 14.000 C 157.059 10.426,155.094 8.190,151.299 7.425 C 149.790 7.122,142.333 7.045,142.333 7.333 M158.333 7.333 C 158.333 7.425,158.554 7.500,158.824 7.500 C 159.102 7.500,159.517 7.674,159.782 7.902 L 160.250 8.304 160.301 13.777 C 160.362 20.272,160.328 20.484,159.177 20.762 C 158.770 20.860,158.407 21.029,158.371 21.137 C 158.287 21.388,170.091 21.423,170.247 21.172 C 170.558 20.669,171.281 17.821,171.123 17.723 C 170.943 17.612,170.776 17.792,169.958 18.974 C 169.174 20.109,168.324 20.398,165.564 20.473 C 162.250 20.562,162.482 20.813,162.538 17.200 L 162.583 14.250 164.841 14.250 C 167.463 14.250,167.823 14.386,168.203 15.525 C 168.675 16.942,168.833 16.519,168.833 13.833 C 168.833 11.194,168.691 10.770,168.243 12.074 C 167.810 13.332,167.627 13.409,164.912 13.474 L 162.500 13.531 162.500 10.783 C 162.500 7.544,162.246 7.833,165.089 7.833 C 168.471 7.833,169.196 8.135,169.588 9.708 C 169.854 10.774,170.167 10.211,170.167 8.667 L 170.167 7.167 164.250 7.167 C 160.417 7.167,158.333 7.225,158.333 7.333 M188.000 7.333 C 188.000 7.425,188.254 7.500,188.565 7.500 C 188.876 7.500,189.307 7.643,189.523 7.818 L 189.917 8.137 189.964 14.070 L 190.012 20.003 189.597 20.418 C 189.369 20.647,189.035 20.833,188.855 20.833 C 188.412 20.833,188.000 21.003,188.000 21.184 C 188.000 21.269,190.588 21.333,193.995 21.333 L 199.991 21.333 200.257 20.375 C 200.403 19.848,200.630 19.085,200.761 18.679 C 201.196 17.335,200.857 17.274,200.000 18.541 C 199.292 19.588,198.592 20.084,197.486 20.321 C 196.596 20.512,193.039 20.568,192.597 20.399 C 192.314 20.290,192.184 8.481,192.461 8.067 C 192.655 7.776,193.274 7.500,193.729 7.500 C 193.959 7.500,194.193 7.425,194.250 7.333 C 194.317 7.224,193.252 7.167,191.177 7.167 C 189.170 7.167,188.000 7.228,188.000 7.333 M201.917 7.333 C 201.973 7.425,202.199 7.500,202.419 7.500 C 203.943 7.500,204.029 7.896,203.967 14.649 C 203.912 20.605,203.920 20.556,202.947 20.752 C 200.927 21.157,201.546 21.333,204.990 21.333 C 207.913 21.333,209.098 21.162,207.882 20.915 C 206.081 20.550,206.157 20.864,206.207 13.964 C 206.255 7.475,206.207 7.719,207.481 7.548 C 209.128 7.327,208.118 7.167,205.083 7.167 C 202.946 7.167,201.849 7.224,201.917 7.333 M227.275 8.042 C 227.001 10.319,227.335 11.581,227.804 10.042 C 228.315 8.365,228.920 8.003,231.208 8.001 L 232.500 8.000 232.498 13.875 C 232.495 20.863,232.581 20.510,230.785 20.907 C 230.529 20.964,230.365 21.083,230.420 21.172 C 230.547 21.377,236.833 21.390,236.833 21.184 C 236.833 20.991,236.413 20.833,235.895 20.833 C 235.670 20.833,235.301 20.649,235.076 20.424 L 234.667 20.015 234.667 14.008 L 234.667 8.000 235.958 8.001 C 238.125 8.002,238.448 8.160,239.061 9.512 C 239.781 11.101,240.082 11.059,239.941 9.392 C 239.882 8.690,239.833 7.903,239.833 7.642 L 239.833 7.167 233.607 7.167 L 227.380 7.167 227.275 8.042 M240.917 7.333 C 240.973 7.425,241.169 7.500,241.351 7.500 C 241.618 7.500,242.569 7.886,242.696 8.046 C 242.713 8.067,242.769 10.333,242.821 13.083 L 242.917 18.083 243.383 19.033 C 245.052 22.432,251.677 22.464,253.417 19.081 L 253.917 18.108 254.000 13.400 C 254.094 8.105,254.134 7.934,255.379 7.584 C 256.551 7.254,256.182 7.167,253.611 7.167 C 251.981 7.167,251.000 7.229,251.000 7.333 C 251.000 7.425,251.195 7.500,251.433 7.500 C 251.938 7.500,252.770 7.953,252.945 8.325 C 253.163 8.785,253.209 16.286,253.002 17.478 C 252.639 19.559,251.585 20.492,249.441 20.628 C 245.693 20.866,245.007 19.685,245.003 12.983 C 244.999 7.894,245.114 7.500,246.594 7.500 C 246.817 7.500,247.000 7.425,247.000 7.333 C 247.000 7.228,245.858 7.167,243.907 7.167 C 241.887 7.167,240.849 7.225,240.917 7.333 M257.000 7.333 C 257.000 7.425,257.192 7.500,257.428 7.500 C 257.892 7.500,258.511 7.774,258.706 8.067 C 258.934 8.408,258.857 20.071,258.625 20.381 C 258.510 20.534,258.122 20.720,257.762 20.793 C 257.402 20.866,257.073 21.030,257.031 21.156 C 256.938 21.435,265.083 21.297,266.315 20.998 C 269.726 20.172,271.712 17.701,271.738 14.250 C 271.765 10.552,270.034 8.396,266.321 7.506 C 264.749 7.129,257.000 6.986,257.000 7.333 M273.167 7.333 C 273.167 7.425,273.421 7.500,273.732 7.500 C 275.185 7.500,275.325 8.094,275.325 14.250 C 275.325 20.398,275.289 20.578,274.001 20.798 C 272.159 21.112,273.112 21.333,276.310 21.333 C 279.837 21.333,280.625 21.122,278.460 20.757 C 277.504 20.596,277.500 20.569,277.500 14.170 L 277.500 8.318 277.909 7.909 C 278.187 7.631,278.505 7.500,278.899 7.500 C 279.219 7.500,279.527 7.425,279.583 7.333 C 279.651 7.224,278.557 7.167,276.427 7.167 C 274.364 7.167,273.167 7.228,273.167 7.333 M286.167 7.333 C 286.167 7.425,286.395 7.500,286.674 7.500 C 286.991 7.500,287.336 7.654,287.591 7.909 L 288.000 8.318 288.000 14.211 C 288.000 20.723,288.025 20.569,286.929 20.793 C 286.569 20.866,286.240 21.030,286.198 21.156 C 286.079 21.512,294.395 21.295,295.667 20.908 C 302.939 18.696,302.811 9.261,295.484 7.505 C 293.916 7.129,286.167 6.986,286.167 7.333 M302.250 7.333 C 302.307 7.425,302.614 7.500,302.934 7.500 C 303.329 7.500,303.646 7.631,303.924 7.909 L 304.333 8.318 304.333 14.170 C 304.333 20.569,304.329 20.596,303.373 20.757 C 301.209 21.122,301.996 21.333,305.524 21.333 C 308.728 21.333,309.675 21.112,307.820 20.796 C 306.483 20.568,306.461 20.445,306.531 13.527 L 306.583 8.304 307.051 7.902 C 307.349 7.645,307.726 7.500,308.093 7.500 C 308.408 7.500,308.667 7.425,308.667 7.333 C 308.667 7.228,307.469 7.167,305.407 7.167 C 303.276 7.167,302.183 7.224,302.250 7.333 M314.833 8.917 C 314.833 10.716,315.156 11.407,315.399 10.125 C 315.694 8.561,316.580 8.000,318.756 8.000 L 320.189 8.000 320.136 13.958 C 320.078 20.466,320.064 20.560,319.126 20.749 C 317.093 21.158,317.704 21.333,321.167 21.333 C 324.630 21.333,325.241 21.158,323.207 20.749 C 322.346 20.576,322.333 20.474,322.333 14.011 L 322.333 8.000 323.672 8.000 C 325.753 8.000,326.620 8.563,326.909 10.103 C 327.158 11.429,327.500 10.743,327.500 8.917 L 327.500 7.167 321.167 7.167 L 314.833 7.167 314.833 8.917 M344.000 7.311 C 344.000 7.391,344.310 7.498,344.690 7.549 C 345.955 7.718,345.911 7.504,345.967 13.742 C 346.028 20.564,346.022 20.593,344.458 20.913 C 343.198 21.170,344.214 21.333,347.083 21.333 C 350.220 21.333,350.887 21.186,349.422 20.817 C 348.273 20.528,348.250 20.462,348.250 17.433 L 348.250 14.750 348.855 14.699 C 349.455 14.649,349.476 14.670,352.117 17.949 L 354.776 21.250 356.415 21.298 C 357.983 21.344,358.810 21.148,358.070 20.907 C 357.894 20.849,357.550 20.728,357.306 20.637 C 356.882 20.479,352.000 14.847,352.000 14.515 C 352.000 14.431,352.294 14.313,352.653 14.252 C 356.660 13.575,356.952 8.707,353.058 7.504 C 351.894 7.145,344.000 6.977,344.000 7.311 M359.000 7.333 C 359.000 7.425,359.303 7.500,359.674 7.500 C 360.168 7.500,360.458 7.610,360.758 7.909 L 361.167 8.318 361.167 14.170 C 361.167 20.569,361.163 20.596,360.206 20.757 C 357.985 21.132,358.700 21.333,362.250 21.333 C 365.794 21.333,366.420 21.161,364.374 20.749 C 363.430 20.559,363.417 20.468,363.417 14.111 L 363.417 8.304 363.884 7.902 C 364.183 7.645,364.559 7.500,364.926 7.500 C 365.242 7.500,365.500 7.425,365.500 7.333 C 365.500 7.228,364.306 7.167,362.250 7.167 C 360.194 7.167,359.000 7.228,359.000 7.333 M366.417 7.333 C 366.473 7.425,366.700 7.500,366.921 7.500 C 367.141 7.500,367.587 7.733,367.911 8.017 L 368.500 8.535 368.500 14.161 C 368.500 20.564,368.510 20.513,367.146 20.783 C 365.780 21.053,366.497 21.250,369.015 21.296 C 371.626 21.344,372.199 21.166,370.748 20.759 C 369.523 20.415,369.489 20.244,369.539 14.670 L 369.583 9.797 374.473 15.649 C 377.163 18.867,379.427 21.500,379.506 21.500 C 379.584 21.500,379.671 18.618,379.699 15.095 C 379.757 7.792,379.734 7.911,381.139 7.593 C 382.435 7.300,381.841 7.167,379.240 7.167 C 377.554 7.167,376.683 7.225,376.750 7.333 C 376.807 7.425,376.995 7.500,377.169 7.500 C 377.651 7.500,378.241 7.817,378.509 8.220 C 378.777 8.625,378.978 17.341,378.718 17.325 C 378.644 17.320,378.333 17.001,378.026 16.616 C 377.720 16.232,375.845 13.951,373.860 11.548 L 370.250 7.179 368.282 7.173 C 367.011 7.169,366.350 7.226,366.417 7.333 M337.710 8.051 C 340.151 9.481,341.235 13.825,340.032 17.350 C 338.342 22.297,332.361 21.956,331.137 16.842 C 329.678 10.745,333.525 5.599,337.710 8.051 M391.917 7.893 C 394.412 9.060,395.485 12.172,394.826 16.333 C 393.836 22.583,386.470 22.286,385.481 15.956 C 384.601 10.328,388.005 6.063,391.917 7.893 M79.163 8.015 C 82.540 8.739,82.224 13.272,78.765 13.726 C 78.390 13.776,77.690 13.864,77.208 13.924 L 76.333 14.031 76.333 11.028 C 76.333 8.308,76.361 8.017,76.625 7.948 C 77.178 7.804,78.319 7.834,79.163 8.015 M149.986 8.090 C 155.845 9.471,156.709 17.735,151.229 19.986 C 150.062 20.465,147.178 20.688,146.749 20.332 C 146.339 19.992,146.379 8.253,146.792 8.013 C 147.219 7.764,148.761 7.802,149.986 8.090 M264.893 8.161 C 270.522 9.600,271.240 17.896,265.917 19.990 C 264.719 20.461,261.835 20.680,261.415 20.332 C 261.005 19.992,261.046 8.253,261.458 8.013 C 261.928 7.740,263.513 7.808,264.893 8.161 M293.819 8.090 C 297.710 9.007,299.671 12.989,298.164 16.912 C 297.208 19.401,293.563 21.138,290.766 20.436 L 290.333 20.327 290.333 14.255 C 290.333 8.648,290.356 8.170,290.625 8.013 C 291.052 7.764,292.594 7.802,293.819 8.090 M351.743 8.212 C 353.869 8.965,354.084 12.187,352.082 13.282 C 351.413 13.648,348.649 14.112,348.326 13.912 C 348.015 13.720,348.127 8.397,348.450 8.074 C 348.786 7.738,350.624 7.815,351.743 8.212 M128.553 12.000 C 128.966 12.963,129.501 14.191,129.742 14.729 C 130.289 15.949,130.493 15.850,127.531 15.796 L 125.015 15.750 126.017 13.417 C 126.568 12.133,127.129 10.826,127.263 10.512 C 127.573 9.787,127.637 9.860,128.553 12.000 " stroke="none" fill="#171717" fill-rule="evenodd"></path><path id="path1" d="M0.000 12.917 L 0.000 25.833 200.000 25.833 L 400.000 25.833 400.000 12.917 L 400.000 0.000 200.000 0.000 L 0.000 0.000 0.000 12.917 M126.775 2.128 C 127.202 2.401,130.500 5.553,130.500 5.688 C 130.500 6.489,125.628 3.768,125.527 2.912 C 125.447 2.222,126.191 1.754,126.775 2.128 M93.917 7.000 C 95.394 7.422,95.755 7.419,96.063 6.978 C 96.572 6.251,96.769 6.691,96.999 9.070 C 97.119 10.317,97.172 11.384,97.116 11.440 C 96.891 11.665,96.511 11.317,96.351 10.737 C 95.632 8.134,92.223 6.779,90.762 8.516 C 89.679 9.803,90.353 10.956,93.167 12.630 C 96.327 14.511,97.337 15.458,97.673 16.858 C 98.466 20.164,94.742 22.550,90.774 21.277 C 89.374 20.829,89.073 20.842,88.909 21.358 C 88.850 21.544,88.687 21.663,88.533 21.633 C 88.191 21.568,87.444 17.165,87.740 16.961 C 88.059 16.740,88.156 16.824,88.602 17.708 C 90.153 20.784,93.715 21.772,95.057 19.500 C 96.005 17.895,95.244 16.788,91.750 14.688 C 88.509 12.741,87.794 11.627,88.355 9.400 C 88.893 7.264,91.263 6.241,93.917 7.000 M128.455 6.875 C 128.544 6.990,129.313 8.621,130.163 10.500 C 134.918 21.005,134.692 20.573,135.512 20.753 C 135.863 20.830,136.002 20.949,135.965 21.140 C 135.891 21.525,130.250 21.566,130.250 21.182 C 130.250 21.050,130.544 20.863,130.917 20.757 C 131.809 20.502,131.819 19.760,130.954 17.939 L 130.350 16.667 127.539 16.667 L 124.727 16.667 124.198 17.958 C 123.291 20.171,123.391 20.833,124.633 20.833 C 124.916 20.833,125.009 20.914,124.968 21.125 C 124.886 21.552,120.618 21.572,120.536 21.145 C 120.503 20.976,120.629 20.837,120.871 20.776 C 121.748 20.556,122.226 19.681,125.250 12.750 C 125.771 11.558,126.489 9.927,126.848 9.125 C 127.207 8.323,127.500 7.608,127.500 7.537 C 127.500 7.009,128.188 6.532,128.455 6.875 M182.388 7.098 C 183.772 7.433,184.453 7.404,184.705 7.000 C 185.213 6.187,185.462 6.578,185.582 8.375 C 185.795 11.568,185.507 12.207,184.609 10.531 C 182.559 6.706,177.363 6.832,175.564 10.750 C 173.110 16.096,176.861 21.746,181.991 20.432 C 183.553 20.032,183.500 20.138,183.500 17.428 C 183.500 14.723,183.423 14.515,182.318 14.246 C 180.685 13.849,181.370 13.667,184.500 13.667 C 187.609 13.667,188.158 13.805,186.823 14.252 C 185.951 14.545,185.839 14.937,185.836 17.704 C 185.833 20.561,185.965 20.347,183.750 21.097 C 177.653 23.161,172.250 19.987,172.250 14.342 C 172.250 8.846,176.642 5.708,182.388 7.098 M221.640 7.002 C 222.973 7.420,223.443 7.420,223.705 7.000 C 224.301 6.046,224.833 7.825,224.833 10.768 C 224.833 11.825,224.401 11.700,223.960 10.516 C 223.038 8.043,220.076 6.891,218.554 8.413 C 217.288 9.679,218.041 11.011,221.003 12.744 C 225.007 15.088,225.891 16.299,225.303 18.634 C 224.666 21.166,221.370 22.324,218.083 21.171 L 217.083 20.820 216.725 21.268 C 216.110 22.033,215.929 21.729,215.595 19.372 C 215.193 16.530,215.411 16.077,216.342 17.824 C 217.608 20.199,219.794 21.261,221.674 20.414 C 223.755 19.475,223.432 17.184,221.005 15.667 C 215.900 12.475,215.368 11.793,216.093 9.354 C 216.743 7.164,219.044 6.188,221.640 7.002 M337.186 6.834 C 345.949 8.470,344.525 21.583,335.583 21.583 C 331.028 21.583,328.417 18.881,328.417 14.167 C 328.417 9.022,332.155 5.895,337.186 6.834 M392.090 6.924 C 400.257 9.038,399.076 21.226,390.665 21.631 C 385.204 21.894,381.704 17.363,383.141 11.890 C 384.122 8.153,388.167 5.908,392.090 6.924 M9.167 7.247 C 9.167 7.383,8.979 7.533,8.750 7.580 C 8.521 7.628,8.148 7.705,7.921 7.752 C 7.134 7.915,7.083 8.245,7.083 13.167 L 7.083 17.750 7.583 18.742 C 8.860 21.276,13.402 21.131,14.632 18.517 C 14.877 17.997,14.915 17.287,14.916 13.213 C 14.917 7.937,14.919 7.945,13.646 7.685 C 13.310 7.616,13.063 7.456,13.030 7.285 C 12.981 7.026,13.213 7.000,15.583 7.000 C 17.960 7.000,18.186 7.025,18.136 7.287 C 18.099 7.476,17.835 7.622,17.360 7.716 C 16.245 7.936,16.167 8.262,16.167 12.689 C 16.167 20.079,15.180 21.583,10.333 21.583 C 5.590 21.583,4.667 20.199,4.667 13.091 C 4.667 8.356,4.593 7.911,3.779 7.748 C 2.835 7.558,2.667 7.481,2.667 7.239 C 2.667 7.040,3.207 7.000,5.917 7.000 C 8.676 7.000,9.167 7.037,9.167 7.247 M26.462 11.583 C 28.517 14.058,30.416 16.344,30.682 16.663 L 31.167 17.243 31.157 13.246 C 31.145 8.221,31.053 7.913,29.458 7.587 C 29.206 7.536,29.000 7.383,29.000 7.247 C 29.000 7.039,29.424 7.000,31.679 7.000 C 34.123 7.000,34.353 7.025,34.303 7.287 C 34.266 7.475,34.004 7.621,33.541 7.713 C 32.407 7.937,32.426 7.817,32.333 15.083 C 32.259 20.906,32.222 21.583,31.982 21.583 C 31.835 21.583,29.743 19.223,27.330 16.333 C 24.919 13.446,22.729 10.832,22.464 10.525 L 21.981 9.967 22.032 14.859 C 22.089 20.283,22.103 20.355,23.165 20.680 C 23.487 20.778,23.842 20.888,23.956 20.923 C 24.069 20.958,24.116 21.105,24.061 21.248 C 23.909 21.644,18.779 21.548,18.703 21.148 C 18.665 20.950,18.824 20.851,19.305 20.774 C 19.665 20.716,20.138 20.525,20.355 20.349 L 20.750 20.030 20.798 14.324 L 20.846 8.618 20.471 8.219 C 20.265 8.000,19.775 7.739,19.382 7.640 C 17.886 7.264,18.492 6.986,20.697 7.037 L 22.727 7.083 26.462 11.583 M41.667 7.239 C 41.667 7.490,41.471 7.572,40.464 7.742 C 39.556 7.895,39.502 8.264,39.501 14.267 C 39.500 20.631,39.556 20.827,41.387 20.832 C 41.587 20.833,41.672 20.934,41.635 21.125 C 41.541 21.613,35.000 21.658,35.000 21.170 C 35.000 20.961,35.110 20.833,35.292 20.832 C 37.148 20.826,37.202 20.620,37.136 13.777 L 37.083 8.303 36.690 7.985 C 36.473 7.810,36.123 7.667,35.912 7.667 C 35.354 7.667,35.000 7.498,35.000 7.232 C 35.000 7.041,35.595 7.000,38.333 7.000 C 41.115 7.000,41.667 7.039,41.667 7.239 M48.500 7.232 C 48.500 7.377,48.203 7.519,47.708 7.611 L 46.917 7.759 46.937 8.421 C 46.950 8.856,47.299 9.797,47.956 11.167 C 48.505 12.313,49.109 13.588,49.299 14.000 C 49.488 14.412,49.975 15.456,50.380 16.319 L 51.117 17.887 51.380 17.152 C 51.525 16.748,52.181 15.067,52.837 13.417 C 54.930 8.150,54.961 7.954,53.730 7.644 C 52.187 7.256,52.824 7.000,55.333 7.000 C 57.857 7.000,58.320 7.193,57.023 7.702 C 56.206 8.023,56.252 7.931,53.156 15.583 C 50.336 22.551,50.521 22.285,49.717 20.547 C 43.484 7.079,43.924 7.924,42.996 7.646 C 42.345 7.451,42.223 7.332,42.444 7.111 C 42.686 6.870,48.500 6.986,48.500 7.232 M70.396 7.521 C 70.838 9.733,70.070 11.292,69.482 9.375 C 69.105 8.146,68.679 8.001,65.458 8.000 L 62.833 8.000 62.833 10.667 L 62.833 13.333 64.892 13.333 C 67.334 13.333,67.893 13.182,68.166 12.448 C 68.601 11.280,68.679 11.143,68.877 11.209 C 69.211 11.320,69.169 16.417,68.834 16.417 C 68.690 16.417,68.493 16.134,68.368 15.750 C 67.961 14.499,67.789 14.424,65.162 14.359 L 62.833 14.301 62.833 17.231 L 62.833 20.160 63.253 20.266 C 63.484 20.324,64.703 20.342,65.961 20.306 C 68.961 20.220,69.603 19.901,70.752 17.924 C 70.851 17.755,71.066 17.658,71.267 17.692 C 71.608 17.749,71.606 17.774,71.089 19.583 L 70.565 21.417 64.493 21.417 C 59.037 21.417,58.416 21.389,58.369 21.148 C 58.331 20.948,58.493 20.850,58.994 20.770 C 60.396 20.546,60.352 20.776,60.298 14.064 C 60.245 7.524,60.271 7.671,59.176 7.664 C 58.635 7.661,58.257 7.426,58.405 7.185 C 58.486 7.055,60.267 7.000,64.406 7.000 L 70.292 7.000 70.396 7.521 M80.320 7.188 C 84.551 7.914,85.435 12.734,81.583 14.076 C 81.125 14.235,80.610 14.418,80.438 14.482 C 79.812 14.715,85.019 20.579,86.031 20.781 C 87.268 21.029,86.482 21.415,84.642 21.464 L 82.872 21.511 80.228 18.182 C 77.627 14.907,77.573 14.852,76.944 14.843 L 76.304 14.833 76.360 17.514 C 76.424 20.520,76.446 20.574,77.712 20.777 C 78.178 20.851,78.335 20.951,78.297 21.148 C 78.219 21.556,72.115 21.556,72.036 21.148 C 71.998 20.950,72.156 20.851,72.631 20.775 C 73.925 20.568,73.910 20.635,73.967 14.691 C 74.030 7.987,74.013 7.905,72.458 7.587 C 69.992 7.083,77.487 6.702,80.320 7.188 M106.167 7.238 C 106.167 7.392,105.850 7.542,105.274 7.662 C 103.974 7.932,104.000 7.796,104.000 14.269 C 104.000 20.740,104.026 20.833,105.787 20.833 C 106.082 20.833,106.176 20.912,106.135 21.125 C 106.058 21.526,99.417 21.580,99.417 21.179 C 99.417 21.028,99.743 20.868,100.312 20.740 C 101.546 20.462,101.495 20.743,101.497 14.240 C 101.500 7.661,101.544 7.892,100.255 7.651 C 99.344 7.481,99.254 7.430,99.410 7.178 C 99.595 6.878,106.167 6.937,106.167 7.238 M119.750 8.208 C 119.993 10.841,119.529 11.705,118.859 9.867 C 118.316 8.379,117.648 8.003,115.542 8.001 L 114.500 8.000 114.500 13.822 C 114.500 20.713,114.531 20.833,116.287 20.833 C 116.582 20.833,116.676 20.912,116.635 21.125 C 116.584 21.391,116.292 21.417,113.333 21.417 C 110.375 21.417,110.083 21.391,110.032 21.125 C 109.995 20.934,110.080 20.833,110.279 20.832 C 112.120 20.827,112.165 20.656,112.166 13.625 L 112.167 8.000 111.208 8.004 C 109.019 8.013,108.155 8.497,107.733 9.951 C 107.132 12.017,106.569 10.473,106.939 7.773 L 107.045 7.000 113.342 7.000 L 119.638 7.000 119.750 8.208 M151.878 7.392 C 159.402 9.517,159.138 19.112,151.500 21.101 C 149.913 21.515,142.283 21.552,142.204 21.148 C 142.165 20.950,142.321 20.851,142.788 20.777 C 144.152 20.559,144.077 20.908,144.131 14.457 C 144.182 8.346,144.135 7.903,143.423 7.755 C 143.190 7.706,142.813 7.628,142.583 7.580 C 142.350 7.532,142.167 7.377,142.167 7.229 C 142.167 6.844,150.429 6.983,151.878 7.392 M170.169 7.958 C 170.170 8.485,170.217 9.198,170.274 9.542 C 170.420 10.425,169.601 10.506,169.408 9.627 C 169.093 8.195,168.593 8.000,165.225 8.000 L 162.667 8.000 162.667 10.679 L 162.667 13.359 164.996 13.304 C 167.623 13.243,167.794 13.169,168.201 11.917 C 168.684 10.431,168.917 11.054,168.917 13.833 C 168.917 16.613,168.684 17.236,168.201 15.750 C 167.795 14.499,167.622 14.424,164.996 14.359 L 162.667 14.301 162.667 17.216 C 162.667 20.646,162.411 20.335,165.222 20.329 C 168.416 20.323,169.475 19.913,170.210 18.401 C 170.478 17.849,170.662 17.667,170.950 17.667 C 171.424 17.667,171.423 17.705,170.865 19.750 L 170.410 21.417 164.332 21.417 C 158.871 21.417,158.249 21.389,158.203 21.148 C 158.164 20.948,158.327 20.850,158.828 20.770 C 160.207 20.550,160.167 20.743,160.167 14.341 C 160.167 8.151,160.135 7.919,159.269 7.746 C 158.336 7.559,158.167 7.481,158.167 7.239 C 158.167 7.036,159.070 7.000,164.167 7.000 L 170.167 7.000 170.169 7.958 M194.455 7.282 C 194.495 7.402,194.270 7.523,193.886 7.588 C 192.268 7.862,192.333 7.580,192.333 14.321 C 192.333 21.094,191.982 20.404,195.377 20.300 C 198.531 20.202,199.299 19.840,200.251 17.998 C 200.405 17.700,200.641 17.500,200.838 17.500 C 201.253 17.500,201.262 17.412,200.619 19.583 L 200.077 21.417 194.038 21.460 C 188.175 21.503,188.000 21.495,188.000 21.183 C 188.000 20.940,188.158 20.836,188.652 20.753 C 189.943 20.534,189.917 20.665,189.917 14.441 C 189.917 7.715,189.959 7.913,188.458 7.592 C 188.205 7.538,188.000 7.382,188.000 7.243 C 188.000 6.913,194.345 6.952,194.455 7.282 M208.500 7.231 C 208.500 7.472,208.011 7.661,207.375 7.664 C 206.349 7.671,206.333 7.768,206.333 14.130 C 206.333 20.787,206.292 20.583,207.681 20.768 C 208.326 20.853,208.504 20.940,208.464 21.148 C 208.382 21.576,201.781 21.554,201.698 21.125 C 201.657 20.912,201.751 20.833,202.046 20.833 C 203.808 20.833,203.833 20.740,203.833 14.269 C 203.833 7.592,203.895 7.861,202.292 7.590 C 201.904 7.525,201.667 7.393,201.667 7.242 C 201.667 7.038,202.205 7.000,205.083 7.000 C 207.881 7.000,208.500 7.042,208.500 7.231 M239.964 8.972 C 240.018 11.149,239.732 11.475,239.146 9.903 C 238.605 8.449,237.834 8.012,235.792 8.004 L 234.833 8.000 234.833 14.071 C 234.833 20.891,234.772 20.562,236.085 20.759 C 236.671 20.847,236.833 20.940,236.833 21.189 C 236.833 21.641,230.456 21.600,230.369 21.148 C 230.331 20.948,230.494 20.850,230.994 20.770 C 232.381 20.549,232.333 20.790,232.333 13.977 L 232.333 7.953 230.948 8.039 C 228.891 8.168,228.376 8.514,227.911 10.083 C 227.723 10.716,227.056 11.094,227.100 10.542 C 227.109 10.427,227.128 9.582,227.142 8.665 L 227.167 6.996 233.542 7.040 L 239.917 7.083 239.964 8.972 M247.167 7.232 C 247.167 7.501,246.812 7.667,246.236 7.667 C 245.208 7.667,245.167 7.873,245.167 12.970 C 245.167 19.603,245.623 20.500,249.000 20.500 C 252.426 20.500,252.897 19.690,252.972 13.667 C 253.041 8.117,252.980 7.882,251.419 7.632 C 251.236 7.603,251.062 7.449,251.031 7.290 C 250.980 7.024,251.200 7.000,253.654 7.000 C 255.833 7.000,256.333 7.043,256.333 7.232 C 256.333 7.485,255.984 7.667,255.496 7.667 C 255.325 7.667,254.975 7.848,254.718 8.069 L 254.250 8.471 254.153 13.110 C 254.048 18.119,253.947 18.769,253.101 19.878 C 251.274 22.274,245.428 22.261,243.768 19.857 C 242.794 18.447,242.770 18.298,242.673 13.028 C 242.575 7.688,242.571 7.667,241.565 7.667 C 241.020 7.667,240.667 7.496,240.667 7.232 C 240.667 7.042,241.250 7.000,243.917 7.000 C 246.584 7.000,247.167 7.042,247.167 7.232 M266.543 7.392 C 274.076 9.519,273.812 19.110,266.167 21.101 C 264.691 21.486,256.917 21.555,256.917 21.184 C 256.917 21.050,257.254 20.853,257.715 20.719 C 258.834 20.393,258.833 20.395,258.833 14.264 C 258.833 8.492,258.763 7.892,258.067 7.749 C 257.847 7.704,257.479 7.628,257.250 7.580 C 257.017 7.532,256.833 7.377,256.833 7.229 C 256.833 6.844,265.095 6.983,266.543 7.392 M279.745 7.158 C 279.875 7.368,279.297 7.667,278.761 7.667 C 277.674 7.667,277.667 7.710,277.667 14.238 C 277.667 20.872,277.607 20.562,278.921 20.759 C 279.756 20.885,279.941 21.036,279.602 21.318 C 279.184 21.665,273.101 21.486,273.032 21.125 C 272.991 20.912,273.085 20.833,273.380 20.833 C 275.125 20.833,275.167 20.678,275.167 14.164 C 275.167 8.046,275.144 7.900,274.183 7.738 C 273.198 7.573,273.000 7.489,273.000 7.239 C 273.000 6.955,279.571 6.876,279.745 7.158 M295.736 7.399 C 302.674 9.354,303.027 18.502,296.255 20.832 C 294.191 21.542,286.156 21.772,286.032 21.125 C 286.001 20.965,286.075 20.833,286.196 20.832 C 287.940 20.825,288.004 20.589,287.983 14.183 C 287.963 7.764,287.995 7.902,286.458 7.587 C 286.190 7.533,286.000 7.384,286.000 7.229 C 286.000 6.839,294.263 6.984,295.736 7.399 M308.833 7.232 C 308.833 7.498,308.479 7.667,307.921 7.667 C 307.710 7.667,307.360 7.810,307.143 7.985 L 306.750 8.304 306.750 14.249 C 306.750 20.971,306.661 20.545,308.114 20.763 C 308.672 20.847,308.837 20.940,308.798 21.145 C 308.718 21.558,302.282 21.558,302.202 21.145 C 302.163 20.940,302.328 20.847,302.886 20.763 C 304.331 20.547,304.244 20.936,304.294 14.472 C 304.346 7.648,304.419 7.949,302.625 7.586 C 302.373 7.535,302.167 7.383,302.167 7.247 C 302.167 7.037,302.667 7.000,305.500 7.000 C 308.238 7.000,308.833 7.041,308.833 7.232 M327.630 8.958 C 327.675 10.736,327.660 10.833,327.345 10.833 C 327.101 10.833,326.967 10.664,326.840 10.192 C 326.403 8.568,325.577 8.037,323.451 8.013 L 322.318 8.000 322.367 14.097 C 322.423 20.984,322.330 20.546,323.781 20.763 C 324.338 20.847,324.504 20.940,324.464 21.145 C 324.391 21.524,317.917 21.563,317.917 21.185 C 317.917 21.048,318.243 20.871,318.718 20.750 C 319.982 20.429,319.912 20.807,319.964 14.075 L 320.012 8.000 319.048 8.004 C 316.854 8.013,316.049 8.461,315.587 9.927 C 314.947 11.962,314.477 10.862,314.774 8.022 L 314.881 6.996 321.232 7.040 L 327.583 7.083 327.630 8.958 M352.583 7.252 C 357.046 8.194,357.201 12.867,352.817 14.328 L 352.052 14.583 354.451 17.417 C 356.734 20.113,357.528 20.833,358.218 20.833 C 358.420 20.833,358.505 20.933,358.469 21.125 C 358.420 21.377,358.174 21.423,356.637 21.464 L 354.860 21.511 352.111 18.116 C 349.475 14.859,349.341 14.723,348.848 14.796 L 348.333 14.871 348.333 17.436 C 348.333 20.359,348.418 20.570,349.672 20.770 C 350.173 20.850,350.336 20.948,350.297 21.148 C 350.210 21.603,344.000 21.640,344.000 21.185 C 344.000 20.939,344.158 20.836,344.668 20.750 C 345.849 20.550,345.833 20.641,345.833 14.130 C 345.833 7.819,345.810 7.667,344.847 7.667 C 344.350 7.667,344.000 7.487,344.000 7.232 C 344.000 6.890,350.945 6.906,352.583 7.252 M365.667 7.232 C 365.667 7.498,365.313 7.667,364.755 7.667 C 364.543 7.667,364.193 7.810,363.977 7.985 L 363.583 8.303 363.529 13.360 C 363.453 20.391,363.482 20.544,364.927 20.760 C 365.502 20.847,365.671 20.939,365.631 21.145 C 365.541 21.616,359.000 21.640,359.000 21.170 C 359.000 20.928,359.110 20.833,359.392 20.833 C 361.123 20.833,361.167 20.667,361.164 14.197 C 361.161 7.686,361.228 7.944,359.458 7.586 C 359.206 7.535,359.000 7.383,359.000 7.247 C 359.000 7.037,359.501 7.000,362.333 7.000 C 365.071 7.000,365.667 7.041,365.667 7.232 M373.083 10.440 C 374.642 12.326,376.517 14.586,377.250 15.462 L 378.583 17.055 378.628 13.133 C 378.686 8.020,378.659 7.930,376.958 7.586 C 376.702 7.535,376.500 7.383,376.500 7.243 C 376.500 6.911,381.846 6.953,381.956 7.286 C 381.994 7.400,381.819 7.530,381.554 7.584 C 379.813 7.942,379.839 7.826,379.836 15.292 C 379.834 20.603,379.795 21.667,379.603 21.667 C 379.396 21.667,376.990 18.877,371.586 12.374 L 369.750 10.164 369.706 14.845 C 369.655 20.255,369.660 20.284,370.878 20.667 C 371.414 20.835,371.657 20.998,371.626 21.167 C 371.552 21.559,366.445 21.538,366.369 21.145 C 366.331 20.950,366.483 20.842,366.908 20.763 C 367.233 20.702,367.705 20.474,367.958 20.257 L 368.417 19.862 368.474 14.330 L 368.531 8.798 367.983 8.232 C 367.681 7.921,367.305 7.667,367.148 7.667 C 366.682 7.667,366.333 7.481,366.333 7.232 C 366.333 7.047,366.727 7.001,368.292 7.005 L 370.250 7.010 373.083 10.440 M333.909 8.001 C 329.942 9.965,329.826 18.289,333.739 20.244 C 336.566 21.656,339.478 19.903,340.173 16.371 C 341.281 10.739,337.793 6.078,333.909 8.001 M388.917 7.772 C 384.461 8.835,384.339 19.017,388.764 20.509 C 392.257 21.687,394.846 18.987,394.845 14.167 C 394.844 9.531,392.436 6.933,388.917 7.772 M76.434 8.264 C 76.379 8.409,76.333 9.732,76.333 11.205 L 76.333 13.882 77.542 13.779 C 80.282 13.546,81.210 12.839,81.307 10.907 L 81.370 9.664 80.723 9.017 C 79.762 8.056,76.719 7.521,76.434 8.264 M146.750 8.190 C 146.702 8.316,146.682 11.081,146.706 14.334 L 146.750 20.250 148.583 20.243 C 151.929 20.229,153.956 18.732,154.511 15.865 C 155.154 12.539,153.754 9.532,151.083 8.500 C 149.846 8.023,146.895 7.811,146.750 8.190 M261.337 8.408 C 261.063 9.129,261.111 19.693,261.390 20.075 C 261.759 20.579,264.739 20.379,266.125 19.756 C 268.372 18.746,269.250 17.199,269.250 14.250 C 269.250 10.293,267.218 8.231,263.128 8.038 L 261.506 7.961 261.337 8.408 M290.517 8.301 C 290.203 8.888,290.266 19.903,290.585 20.168 C 291.109 20.603,294.158 20.299,295.400 19.687 C 299.836 17.503,299.511 10.501,294.882 8.530 C 293.485 7.935,290.789 7.794,290.517 8.301 M348.458 8.096 C 348.390 8.166,348.333 9.485,348.333 11.028 L 348.333 13.833 349.009 13.833 C 352.413 13.833,354.428 11.527,352.956 9.316 C 352.311 8.348,349.079 7.471,348.458 8.096 M127.509 10.167 C 127.502 10.212,126.981 11.450,126.350 12.917 L 125.204 15.583 127.542 15.630 C 128.827 15.655,129.906 15.649,129.939 15.617 C 129.972 15.584,129.622 14.701,129.163 13.654 C 128.220 11.505,127.526 10.043,127.509 10.167 " stroke="none" fill="#fbfbfb" fill-rule="evenodd"></path><path id="path2" d="M245.072 12.917 C 245.072 15.208,245.096 16.169,245.124 15.051 C 245.153 13.934,245.153 12.059,245.125 10.885 C 245.096 9.711,245.072 10.625,245.072 12.917 M242.738 12.833 C 242.738 14.988,242.762 15.869,242.791 14.792 C 242.820 13.715,242.820 11.952,242.791 10.875 C 242.762 9.798,242.738 10.679,242.738 12.833 M16.070 12.833 C 16.070 14.713,16.095 15.481,16.124 14.542 C 16.154 13.602,16.154 12.065,16.124 11.125 C 16.095 10.185,16.070 10.954,16.070 12.833 M378.738 13.333 C 378.738 15.396,378.762 16.240,378.791 15.208 C 378.820 14.177,378.820 12.490,378.791 11.458 C 378.762 10.427,378.738 11.271,378.738 13.333 " stroke="none" fill="#8c8c8c" fill-rule="evenodd"></path><path id="path3" d="M127.660 3.042 C 128.350 3.778,128.500 3.910,128.500 3.785 C 128.500 3.758,128.144 3.402,127.708 2.993 L 126.917 2.250 127.660 3.042 M335.375 6.782 C 335.535 6.823,335.798 6.823,335.958 6.782 C 336.119 6.740,335.987 6.705,335.667 6.705 C 335.346 6.705,335.215 6.740,335.375 6.782 M389.875 6.782 C 390.035 6.823,390.298 6.823,390.458 6.782 C 390.619 6.740,390.488 6.705,390.167 6.705 C 389.846 6.705,389.715 6.740,389.875 6.782 M185.381 7.583 C 185.382 8.042,185.415 8.209,185.453 7.956 C 185.491 7.703,185.490 7.328,185.451 7.123 C 185.411 6.918,185.380 7.125,185.381 7.583 M2.778 7.111 C 2.717 7.172,2.668 7.303,2.669 7.403 C 2.671 7.513,2.723 7.503,2.802 7.379 C 2.895 7.233,3.806 7.160,6.007 7.125 L 9.083 7.075 5.986 7.038 C 4.283 7.017,2.839 7.050,2.778 7.111 M14.300 7.124 C 15.060 7.155,16.260 7.155,16.966 7.124 C 17.672 7.093,17.050 7.067,15.583 7.067 C 14.117 7.068,13.539 7.093,14.300 7.124 M19.708 7.123 C 20.235 7.156,21.098 7.156,21.625 7.123 C 22.152 7.090,21.721 7.063,20.667 7.063 C 19.612 7.063,19.181 7.090,19.708 7.123 M29.111 7.111 C 29.050 7.172,29.001 7.303,29.003 7.403 C 29.004 7.513,29.055 7.504,29.135 7.380 C 29.225 7.238,30.023 7.160,31.757 7.125 L 34.250 7.074 31.736 7.037 C 30.353 7.017,29.172 7.050,29.111 7.111 M38.159 7.123 C 40.482 7.160,41.443 7.232,41.547 7.379 C 41.652 7.527,41.673 7.515,41.624 7.333 C 41.566 7.122,41.042 7.082,38.236 7.078 L 34.917 7.072 38.159 7.123 M43.867 7.124 C 44.664 7.154,46.014 7.155,46.867 7.124 C 47.719 7.094,47.067 7.069,45.417 7.069 C 43.767 7.069,43.069 7.093,43.867 7.124 M53.111 7.111 C 53.050 7.172,53.001 7.303,53.003 7.403 C 53.004 7.503,53.066 7.487,53.143 7.365 C 53.248 7.200,53.803 7.160,55.459 7.199 C 56.656 7.227,57.601 7.194,57.558 7.125 C 57.462 6.970,53.265 6.957,53.111 7.111 M61.375 7.125 C 63.002 7.152,65.665 7.152,67.292 7.125 C 68.919 7.097,67.587 7.075,64.333 7.075 C 61.079 7.075,59.748 7.097,61.375 7.125 M72.109 7.125 C 72.066 7.194,73.093 7.231,74.391 7.207 C 78.806 7.126,79.257 7.067,75.718 7.034 C 73.776 7.015,72.151 7.056,72.109 7.125 M102.743 7.123 C 104.998 7.160,105.943 7.233,106.047 7.379 C 106.152 7.527,106.173 7.514,106.124 7.333 C 106.066 7.122,105.552 7.082,102.820 7.078 L 99.583 7.072 102.743 7.123 M113.198 7.124 L 119.479 7.171 119.547 7.627 C 119.610 8.054,119.613 8.051,119.599 7.583 L 119.583 7.083 113.250 7.080 L 106.917 7.077 113.198 7.124 M144.042 7.124 C 145.027 7.154,146.640 7.154,147.625 7.124 C 148.610 7.095,147.804 7.071,145.833 7.071 C 143.862 7.071,143.056 7.095,144.042 7.124 M161.302 7.125 C 162.981 7.152,165.681 7.152,167.302 7.125 C 168.924 7.097,167.550 7.075,164.250 7.075 C 160.950 7.075,159.624 7.098,161.302 7.125 M189.550 7.124 C 190.449 7.154,191.874 7.154,192.717 7.124 C 193.560 7.094,192.825 7.069,191.083 7.069 C 189.342 7.070,188.652 7.094,189.550 7.124 M203.467 7.124 C 204.412 7.154,205.912 7.154,206.801 7.124 C 207.689 7.094,206.917 7.070,205.083 7.070 C 203.250 7.070,202.523 7.095,203.467 7.124 M230.469 7.125 C 232.240 7.152,235.090 7.152,236.803 7.125 C 238.515 7.098,237.067 7.076,233.583 7.076 C 230.100 7.076,228.699 7.098,230.469 7.125 M243.826 7.123 C 246.015 7.160,246.944 7.233,247.047 7.379 C 247.152 7.527,247.173 7.514,247.124 7.333 C 247.067 7.123,246.561 7.082,243.903 7.077 L 240.750 7.072 243.826 7.123 M252.300 7.124 C 253.060 7.155,254.260 7.155,254.966 7.124 C 255.672 7.093,255.050 7.067,253.583 7.067 C 252.117 7.068,251.539 7.093,252.300 7.124 M258.708 7.124 C 259.694 7.154,261.306 7.154,262.292 7.124 C 263.277 7.095,262.471 7.071,260.500 7.071 C 258.529 7.071,257.723 7.095,258.708 7.124 M273.111 7.111 C 273.050 7.172,273.001 7.303,273.003 7.403 C 273.004 7.513,273.056 7.503,273.135 7.379 C 273.228 7.232,274.156 7.160,276.424 7.125 L 279.583 7.076 276.403 7.038 C 274.653 7.017,273.172 7.050,273.111 7.111 M286.111 7.111 C 286.050 7.172,286.001 7.303,286.003 7.403 C 286.004 7.512,286.056 7.503,286.135 7.378 C 286.230 7.230,287.222 7.160,289.758 7.125 L 293.250 7.076 289.736 7.038 C 287.803 7.017,286.172 7.050,286.111 7.111 M303.333 7.114 C 305.971 7.234,308.796 7.240,308.725 7.125 C 308.682 7.056,307.208 7.015,305.448 7.033 C 303.689 7.051,302.737 7.087,303.333 7.114 M318.042 7.125 C 319.760 7.152,322.573 7.152,324.292 7.125 C 326.010 7.098,324.604 7.076,321.167 7.076 C 317.729 7.076,316.323 7.098,318.042 7.125 M345.699 7.124 C 346.679 7.154,348.329 7.154,349.366 7.125 C 350.402 7.095,349.600 7.071,347.583 7.071 C 345.567 7.071,344.719 7.095,345.699 7.124 M362.159 7.123 C 364.482 7.160,365.443 7.232,365.547 7.379 C 365.652 7.527,365.673 7.515,365.624 7.333 C 365.566 7.122,365.042 7.082,362.236 7.078 L 358.917 7.072 362.159 7.123 M367.375 7.123 C 367.902 7.156,368.765 7.156,369.292 7.123 C 369.819 7.090,369.387 7.063,368.333 7.063 C 367.279 7.063,366.848 7.090,367.375 7.123 M378.042 7.124 C 378.752 7.155,379.915 7.155,380.625 7.124 C 381.335 7.093,380.754 7.067,379.333 7.067 C 377.912 7.067,377.331 7.093,378.042 7.124 M227.205 7.833 C 227.205 8.154,227.240 8.285,227.282 8.125 C 227.323 7.965,227.323 7.702,227.282 7.542 C 227.240 7.381,227.205 7.513,227.205 7.833 M64.125 7.957 C 64.790 7.989,65.877 7.989,66.542 7.957 C 67.206 7.925,66.662 7.900,65.333 7.900 C 64.004 7.900,63.460 7.925,64.125 7.957 M77.295 7.954 C 77.594 7.991,78.044 7.990,78.295 7.952 C 78.545 7.914,78.300 7.884,77.750 7.885 C 77.200 7.886,76.995 7.917,77.295 7.954 M163.958 7.957 C 164.623 7.989,165.710 7.989,166.375 7.957 C 167.040 7.925,166.496 7.900,165.167 7.900 C 163.837 7.900,163.294 7.925,163.958 7.957 M349.128 7.954 C 349.428 7.991,349.878 7.990,350.128 7.952 C 350.378 7.914,350.133 7.884,349.583 7.885 C 349.033 7.886,348.828 7.917,349.128 7.954 M114.409 13.917 C 114.409 17.217,114.431 18.590,114.458 16.969 C 114.485 15.348,114.485 12.648,114.458 10.969 C 114.431 9.290,114.409 10.617,114.409 13.917 M239.872 8.500 C 239.872 8.821,239.906 8.952,239.948 8.792 C 239.990 8.631,239.990 8.369,239.948 8.208 C 239.906 8.048,239.872 8.179,239.872 8.500 M320.075 13.583 C 320.075 16.700,320.097 17.951,320.125 16.364 C 320.152 14.777,320.152 12.227,320.125 10.698 C 320.097 9.168,320.075 10.467,320.075 13.583 M348.235 11.083 C 348.235 12.642,348.260 13.302,348.291 12.550 C 348.321 11.798,348.321 10.523,348.291 9.717 C 348.260 8.910,348.235 9.525,348.235 11.083 M4.739 12.750 C 4.739 15.042,4.762 16.002,4.791 14.885 C 4.820 13.767,4.820 11.892,4.791 10.718 C 4.763 9.544,4.739 10.458,4.739 12.750 M60.408 14.167 C 60.408 17.238,60.431 18.494,60.458 16.958 C 60.486 15.423,60.486 12.910,60.458 11.375 C 60.431 9.840,60.408 11.096,60.408 14.167 M39.408 14.167 C 39.408 17.146,39.430 18.365,39.458 16.875 C 39.486 15.385,39.486 12.948,39.458 11.458 C 39.430 9.969,39.408 11.188,39.408 14.167 M154.833 8.885 C 154.833 8.914,155.077 9.158,155.375 9.427 L 155.917 9.917 155.427 9.375 C 154.971 8.870,154.833 8.757,154.833 8.885 M203.908 14.250 C 203.908 17.275,203.930 18.536,203.958 17.052 C 203.986 15.568,203.986 13.093,203.958 11.552 C 203.931 10.011,203.908 11.225,203.908 14.250 M269.500 8.885 C 269.500 8.914,269.744 9.158,270.042 9.427 L 270.583 9.917 270.094 9.375 C 269.638 8.870,269.500 8.757,269.500 8.885 M306.574 14.167 C 306.574 17.146,306.597 18.365,306.625 16.875 C 306.652 15.385,306.652 12.948,306.625 11.458 C 306.597 9.969,306.574 11.188,306.574 14.167 M103.908 14.167 C 103.908 17.054,103.930 18.235,103.958 16.792 C 103.986 15.348,103.986 12.985,103.958 11.542 C 103.930 10.098,103.908 11.279,103.908 14.167 M106.872 9.500 C 106.872 9.821,106.906 9.952,106.948 9.792 C 106.990 9.631,106.990 9.369,106.948 9.208 C 106.906 9.048,106.872 9.179,106.872 9.500 M160.241 14.250 C 160.241 17.183,160.264 18.360,160.291 16.865 C 160.319 15.369,160.319 12.969,160.291 11.531 C 160.264 10.093,160.241 11.317,160.241 14.250 M144.241 14.083 C 144.240 16.833,144.263 17.982,144.291 16.635 C 144.319 15.289,144.319 13.039,144.291 11.635 C 144.263 10.232,144.241 11.333,144.241 14.083 M253.072 13.083 C 253.072 15.283,253.096 16.160,253.125 15.032 C 253.153 13.904,253.153 12.104,253.124 11.032 C 253.095 9.960,253.072 10.883,253.072 13.083 M275.241 14.250 C 275.241 17.092,275.263 18.278,275.291 16.885 C 275.319 15.493,275.319 13.168,275.291 11.719 C 275.264 10.269,275.241 11.408,275.241 14.250 M363.407 14.167 C 363.407 16.962,363.430 18.106,363.458 16.708 C 363.486 15.310,363.486 13.023,363.458 11.625 C 363.430 10.227,363.407 11.371,363.407 14.167 M379.742 15.417 C 379.742 18.808,379.764 20.172,379.791 18.447 C 379.819 16.723,379.819 13.948,379.791 12.281 C 379.764 10.614,379.742 12.025,379.742 15.417 M15.071 13.083 C 15.071 15.100,15.095 15.902,15.125 14.866 C 15.154 13.829,15.154 12.179,15.124 11.199 C 15.095 10.219,15.071 11.067,15.071 13.083 M254.071 13.000 C 254.071 14.971,254.095 15.777,254.124 14.792 C 254.154 13.806,254.154 12.194,254.124 11.208 C 254.095 10.223,254.071 11.029,254.071 13.000 M69.067 13.833 C 69.067 15.254,69.093 15.835,69.124 15.125 C 69.155 14.415,69.155 13.252,69.124 12.542 C 69.093 11.831,69.067 12.412,69.067 13.833 M168.900 13.833 C 168.900 15.162,168.925 15.706,168.957 15.042 C 168.989 14.377,168.989 13.290,168.957 12.625 C 168.925 11.960,168.900 12.504,168.900 13.833 M340.392 14.167 C 340.392 14.946,340.420 15.265,340.455 14.875 C 340.490 14.485,340.490 13.848,340.455 13.458 C 340.420 13.069,340.392 13.387,340.392 14.167 M385.392 14.167 C 385.392 14.946,385.420 15.265,385.455 14.875 C 385.490 14.485,385.490 13.848,385.455 13.458 C 385.420 13.069,385.392 13.387,385.392 14.167 M154.705 13.667 C 154.705 13.987,154.740 14.119,154.782 13.958 C 154.823 13.798,154.823 13.535,154.782 13.375 C 154.740 13.215,154.705 13.346,154.705 13.667 M63.708 13.457 C 64.327 13.489,65.340 13.489,65.958 13.457 C 66.577 13.425,66.071 13.399,64.833 13.399 C 63.596 13.399,63.090 13.425,63.708 13.457 M163.542 13.457 C 164.160 13.489,165.173 13.489,165.792 13.457 C 166.410 13.425,165.904 13.399,164.667 13.399 C 163.429 13.399,162.923 13.425,163.542 13.457 M298.548 14.250 C 298.549 14.708,298.581 14.876,298.620 14.623 C 298.658 14.369,298.657 13.994,298.617 13.789 C 298.578 13.584,298.546 13.792,298.548 14.250 M63.792 14.290 C 64.365 14.323,65.302 14.323,65.875 14.290 C 66.448 14.258,65.979 14.231,64.833 14.231 C 63.688 14.231,63.219 14.258,63.792 14.290 M163.625 14.290 C 164.198 14.323,165.135 14.323,165.708 14.290 C 166.281 14.258,165.813 14.231,164.667 14.231 C 163.521 14.231,163.052 14.258,163.625 14.290 M154.705 14.833 C 154.705 15.154,154.740 15.285,154.782 15.125 C 154.823 14.965,154.823 14.702,154.782 14.542 C 154.740 14.381,154.705 14.512,154.705 14.833 M348.233 17.250 C 348.234 18.625,348.259 19.165,348.291 18.451 C 348.322 17.736,348.322 16.611,348.290 15.951 C 348.259 15.290,348.233 15.875,348.233 17.250 M95.375 18.417 C 95.377 18.783,95.411 18.914,95.451 18.706 C 95.491 18.499,95.490 18.199,95.448 18.040 C 95.406 17.880,95.374 18.050,95.375 18.417 M223.039 18.333 C 223.039 18.654,223.073 18.785,223.115 18.625 C 223.157 18.465,223.157 18.202,223.115 18.042 C 223.073 17.881,223.039 18.012,223.039 18.333 M14.573 20.208 L 14.083 20.750 14.625 20.260 C 14.923 19.991,15.167 19.748,15.167 19.719 C 15.167 19.590,15.029 19.703,14.573 20.208 M149.125 21.284 C 149.331 21.324,149.669 21.324,149.875 21.284 C 150.081 21.245,149.912 21.212,149.500 21.212 C 149.087 21.212,148.919 21.245,149.125 21.284 M263.792 21.284 C 263.998 21.324,264.335 21.324,264.542 21.284 C 264.748 21.245,264.579 21.212,264.167 21.212 C 263.754 21.212,263.585 21.245,263.792 21.284 M292.958 21.284 C 293.165 21.324,293.502 21.324,293.708 21.284 C 293.915 21.245,293.746 21.212,293.333 21.212 C 292.921 21.212,292.752 21.245,292.958 21.284 M9.875 21.619 C 10.127 21.658,10.540 21.658,10.792 21.619 C 11.044 21.581,10.838 21.550,10.333 21.550 C 9.829 21.550,9.623 21.581,9.875 21.619 M179.708 21.619 C 179.960 21.658,180.373 21.658,180.625 21.619 C 180.877 21.581,180.671 21.550,180.167 21.550 C 179.662 21.550,179.456 21.581,179.708 21.619 M248.044 21.620 C 248.297 21.658,248.672 21.657,248.877 21.617 C 249.082 21.578,248.875 21.546,248.417 21.548 C 247.958 21.549,247.791 21.581,248.044 21.620 M335.292 21.618 C 335.498 21.657,335.835 21.657,336.042 21.618 C 336.248 21.578,336.079 21.545,335.667 21.545 C 335.254 21.545,335.085 21.578,335.292 21.618 M389.792 21.618 C 389.998 21.657,390.335 21.657,390.542 21.618 C 390.748 21.578,390.579 21.545,390.167 21.545 C 389.754 21.545,389.585 21.578,389.792 21.618 " stroke="none" fill="#7c7c7c" fill-rule="evenodd"></path><path id="path4" d="M129.660 4.875 C 130.350 5.611,130.500 5.743,130.500 5.618 C 130.500 5.591,130.144 5.235,129.708 4.826 L 128.917 4.083 129.660 4.875 M327.559 8.583 C 327.559 9.408,327.587 9.767,327.622 9.380 C 327.657 8.993,327.657 8.318,327.623 7.880 C 327.588 7.442,327.560 7.758,327.559 8.583 M335.375 7.615 C 335.535 7.657,335.798 7.657,335.958 7.615 C 336.119 7.573,335.987 7.539,335.667 7.539 C 335.346 7.539,335.215 7.573,335.375 7.615 M389.875 7.615 C 390.035 7.657,390.298 7.657,390.458 7.615 C 390.619 7.573,390.488 7.539,390.167 7.539 C 389.846 7.539,389.715 7.573,389.875 7.615 M70.381 8.417 C 70.382 8.875,70.415 9.043,70.453 8.789 C 70.491 8.536,70.490 8.161,70.451 7.956 C 70.411 7.751,70.380 7.958,70.381 8.417 M147.544 7.953 C 147.797 7.991,148.172 7.990,148.377 7.951 C 148.582 7.911,148.375 7.880,147.917 7.881 C 147.458 7.882,147.291 7.915,147.544 7.953 M262.211 7.953 C 262.464 7.991,262.839 7.990,263.044 7.951 C 263.249 7.911,263.042 7.880,262.583 7.881 C 262.125 7.882,261.957 7.915,262.211 7.953 M291.377 7.953 C 291.631 7.991,292.006 7.990,292.211 7.951 C 292.416 7.911,292.208 7.880,291.750 7.881 C 291.292 7.882,291.124 7.915,291.377 7.953 M106.872 8.500 C 106.872 8.821,106.906 8.952,106.948 8.792 C 106.990 8.631,106.990 8.369,106.948 8.208 C 106.906 8.048,106.872 8.179,106.872 8.500 M232.408 13.667 C 232.408 16.829,232.431 18.123,232.458 16.542 C 232.485 14.960,232.485 12.373,232.458 10.792 C 232.431 9.210,232.408 10.504,232.408 13.667 M234.742 13.833 C 234.742 17.087,234.764 18.419,234.791 16.792 C 234.819 15.165,234.819 12.502,234.791 10.875 C 234.764 9.248,234.742 10.579,234.742 13.833 M62.734 10.750 C 62.734 12.217,62.760 12.794,62.791 12.034 C 62.822 11.273,62.822 10.073,62.790 9.367 C 62.759 8.661,62.734 9.283,62.734 10.750 M119.721 9.250 C 119.722 9.892,119.752 10.134,119.788 9.788 C 119.824 9.442,119.824 8.917,119.787 8.621 C 119.750 8.325,119.721 8.608,119.721 9.250 M162.567 10.750 C 162.568 12.217,162.593 12.794,162.624 12.034 C 162.655 11.273,162.655 10.073,162.624 9.367 C 162.593 8.661,162.567 9.283,162.567 10.750 M146.575 14.167 C 146.575 17.421,146.597 18.752,146.625 17.125 C 146.652 15.498,146.652 12.835,146.625 11.208 C 146.597 9.581,146.575 10.912,146.575 14.167 M185.558 9.667 C 185.558 10.446,185.587 10.765,185.622 10.375 C 185.657 9.985,185.657 9.348,185.622 8.958 C 185.587 8.569,185.558 8.887,185.558 9.667 M314.705 8.833 C 314.705 9.154,314.740 9.285,314.782 9.125 C 314.823 8.965,314.823 8.702,314.782 8.542 C 314.740 8.381,314.705 8.512,314.705 8.833 M395.000 8.385 C 395.000 8.414,395.244 8.658,395.542 8.927 L 396.083 9.417 395.594 8.875 C 395.138 8.370,395.000 8.257,395.000 8.385 M277.575 14.167 C 277.575 17.329,277.597 18.623,277.625 17.042 C 277.652 15.460,277.652 12.873,277.625 11.292 C 277.597 9.710,277.575 11.004,277.575 14.167 M101.575 14.167 C 101.575 17.238,101.597 18.494,101.625 16.958 C 101.652 15.423,101.652 12.910,101.625 11.375 C 101.597 9.840,101.575 11.096,101.575 14.167 M20.907 13.833 C 20.907 16.629,20.930 17.773,20.958 16.375 C 20.986 14.977,20.986 12.690,20.958 11.292 C 20.930 9.894,20.907 11.037,20.907 13.833 M206.241 14.250 C 206.241 17.183,206.264 18.360,206.291 16.865 C 206.319 15.369,206.319 12.969,206.291 11.531 C 206.264 10.093,206.241 11.317,206.241 14.250 M345.907 14.083 C 345.907 16.925,345.930 18.111,345.958 16.719 C 345.986 15.327,345.986 13.002,345.958 11.552 C 345.930 10.103,345.908 11.242,345.907 14.083 M32.242 15.500 C 32.242 18.846,32.264 20.215,32.291 18.542 C 32.319 16.869,32.319 14.131,32.291 12.458 C 32.264 10.785,32.242 12.154,32.242 15.500 M215.875 10.583 C 215.877 10.950,215.911 11.080,215.951 10.873 C 215.991 10.666,215.990 10.366,215.948 10.206 C 215.906 10.047,215.874 10.217,215.875 10.583 M369.573 14.583 C 369.573 17.150,369.596 18.177,369.625 16.865 C 369.653 15.553,369.653 13.453,369.625 12.198 C 369.596 10.943,369.573 12.017,369.573 14.583 M81.379 10.833 C 81.379 11.246,81.411 11.415,81.451 11.208 C 81.491 11.002,81.491 10.665,81.451 10.458 C 81.411 10.252,81.379 10.421,81.379 10.833 M227.003 10.464 C 226.999 10.768,227.486 10.914,227.720 10.679 C 227.872 10.526,227.846 10.507,227.608 10.598 C 227.417 10.671,227.244 10.627,227.152 10.483 C 227.042 10.309,227.004 10.304,227.003 10.464 M88.833 12.552 C 88.833 12.581,89.077 12.825,89.375 13.094 L 89.917 13.583 89.427 13.042 C 88.971 12.537,88.833 12.423,88.833 12.552 M157.217 14.167 C 157.217 14.671,157.248 14.877,157.286 14.625 C 157.324 14.373,157.324 13.960,157.286 13.708 C 157.248 13.456,157.217 13.662,157.217 14.167 M397.550 14.167 C 397.550 14.671,397.581 14.877,397.619 14.625 C 397.658 14.373,397.658 13.960,397.619 13.708 C 397.581 13.456,397.550 13.662,397.550 14.167 M271.879 14.167 C 271.879 14.579,271.911 14.748,271.951 14.542 C 271.991 14.335,271.991 13.998,271.951 13.792 C 271.911 13.585,271.879 13.754,271.879 14.167 M62.735 17.167 C 62.735 18.771,62.760 19.427,62.791 18.625 C 62.821 17.823,62.821 16.510,62.791 15.708 C 62.760 14.906,62.735 15.563,62.735 17.167 M162.569 17.167 C 162.569 18.771,162.594 19.427,162.624 18.625 C 162.655 17.823,162.655 16.510,162.624 15.708 C 162.594 14.906,162.569 15.563,162.569 17.167 M76.627 14.785 C 76.834 14.824,77.134 14.823,77.294 14.781 C 77.453 14.739,77.283 14.707,76.917 14.709 C 76.550 14.711,76.420 14.745,76.627 14.785 M126.383 15.791 C 127.097 15.822,128.222 15.822,128.883 15.790 C 129.543 15.759,128.958 15.733,127.583 15.733 C 126.208 15.734,125.668 15.759,126.383 15.791 M183.564 17.583 C 183.564 18.683,183.591 19.112,183.624 18.535 C 183.656 17.959,183.656 17.059,183.623 16.535 C 183.590 16.012,183.563 16.483,183.564 17.583 M97.705 17.667 C 97.705 17.987,97.740 18.119,97.782 17.958 C 97.823 17.798,97.823 17.535,97.782 17.375 C 97.740 17.215,97.705 17.346,97.705 17.667 M338.658 19.458 L 338.083 20.083 338.708 19.509 C 339.290 18.974,339.410 18.833,339.283 18.833 C 339.255 18.833,338.974 19.115,338.658 19.458 M340.906 19.542 L 340.417 20.083 340.958 19.594 C 341.463 19.138,341.577 19.000,341.448 19.000 C 341.419 19.000,341.175 19.244,340.906 19.542 M386.667 19.052 C 386.667 19.081,386.910 19.325,387.208 19.594 L 387.750 20.083 387.260 19.542 C 386.804 19.037,386.667 18.923,386.667 19.052 M64.708 20.455 C 65.052 20.491,65.615 20.491,65.958 20.455 C 66.302 20.419,66.021 20.389,65.333 20.389 C 64.646 20.389,64.365 20.419,64.708 20.455 M147.455 20.454 C 147.750 20.490,148.275 20.491,148.621 20.455 C 148.967 20.419,148.725 20.389,148.083 20.388 C 147.442 20.387,147.159 20.417,147.455 20.454 M164.542 20.455 C 164.885 20.491,165.448 20.491,165.792 20.455 C 166.135 20.419,165.854 20.389,165.167 20.389 C 164.479 20.389,164.198 20.419,164.542 20.455 M193.875 20.455 C 194.219 20.491,194.781 20.491,195.125 20.455 C 195.469 20.419,195.188 20.389,194.500 20.389 C 193.813 20.389,193.531 20.419,193.875 20.455 M262.121 20.454 C 262.417 20.490,262.942 20.491,263.288 20.455 C 263.634 20.419,263.392 20.389,262.750 20.388 C 262.108 20.387,261.825 20.417,262.121 20.454 M291.292 20.454 C 291.590 20.491,292.077 20.491,292.375 20.454 C 292.673 20.417,292.429 20.387,291.833 20.387 C 291.237 20.387,290.994 20.417,291.292 20.454 M10.627 20.618 C 10.834 20.658,11.134 20.656,11.294 20.615 C 11.453 20.573,11.283 20.540,10.917 20.542 C 10.550 20.544,10.420 20.578,10.627 20.618 M248.627 20.618 C 248.834 20.658,249.134 20.656,249.294 20.615 C 249.453 20.573,249.283 20.540,248.917 20.542 C 248.550 20.544,248.420 20.578,248.627 20.618 M58.387 21.083 C 58.423 21.431,70.184 21.716,70.523 21.377 C 70.593 21.307,67.922 21.271,64.588 21.296 C 58.905 21.338,58.521 21.323,58.439 21.046 C 58.370 20.809,58.359 20.817,58.387 21.083 M142.220 21.083 C 142.253 21.404,142.379 21.417,145.502 21.422 L 148.750 21.427 145.553 21.377 C 142.693 21.332,142.347 21.296,142.271 21.038 C 142.206 20.820,142.194 20.831,142.220 21.083 M158.220 21.083 C 158.256 21.431,170.017 21.716,170.356 21.377 C 170.426 21.307,167.756 21.271,164.421 21.296 C 158.738 21.338,158.354 21.323,158.273 21.046 C 158.203 20.809,158.193 20.817,158.220 21.083 M99.376 21.167 C 99.434 21.378,99.958 21.418,102.764 21.422 L 106.083 21.428 102.841 21.377 C 100.518 21.340,99.557 21.268,99.453 21.121 C 99.348 20.973,99.327 20.985,99.376 21.167 M130.209 21.167 C 130.266 21.376,130.736 21.418,133.097 21.423 L 135.917 21.430 133.174 21.377 C 131.253 21.340,130.388 21.264,130.286 21.121 C 130.181 20.973,130.160 20.986,130.209 21.167 M256.876 21.167 C 256.934 21.378,257.458 21.418,260.264 21.422 L 263.583 21.428 260.341 21.377 C 258.018 21.340,257.057 21.268,256.953 21.121 C 256.848 20.973,256.827 20.985,256.876 21.167 M317.876 21.167 C 317.934 21.378,318.448 21.418,321.180 21.422 L 324.417 21.428 321.257 21.377 C 319.002 21.340,318.057 21.267,317.953 21.121 C 317.848 20.973,317.827 20.986,317.876 21.167 M18.812 21.379 C 18.884 21.451,20.099 21.488,21.513 21.462 L 24.083 21.416 21.383 21.333 C 19.898 21.287,18.741 21.308,18.812 21.379 M72.145 21.379 C 72.216 21.450,73.619 21.487,75.262 21.462 L 78.250 21.416 75.133 21.333 C 73.419 21.287,72.074 21.308,72.145 21.379 M110.145 21.379 C 110.216 21.450,111.694 21.487,113.429 21.462 L 116.583 21.416 113.300 21.333 C 111.494 21.287,110.074 21.308,110.145 21.379 M194.000 21.333 L 187.917 21.423 193.948 21.461 C 197.832 21.486,200.017 21.441,200.083 21.333 C 200.140 21.242,200.163 21.184,200.135 21.205 C 200.107 21.226,197.346 21.284,194.000 21.333 M201.776 21.375 C 201.818 21.444,203.307 21.500,205.083 21.500 C 206.860 21.500,208.348 21.444,208.391 21.375 C 208.433 21.306,206.945 21.250,205.083 21.250 C 203.222 21.250,201.733 21.306,201.776 21.375 M356.583 21.333 L 354.750 21.434 356.532 21.467 C 357.577 21.486,358.356 21.431,358.417 21.333 C 358.473 21.242,358.496 21.181,358.468 21.200 C 358.440 21.218,357.592 21.278,356.583 21.333 M36.634 21.458 C 37.578 21.488,39.078 21.487,39.967 21.457 C 40.856 21.428,40.083 21.403,38.250 21.403 C 36.417 21.404,35.689 21.428,36.634 21.458 M83.714 21.457 C 84.245 21.490,85.070 21.490,85.548 21.456 C 86.026 21.422,85.592 21.395,84.583 21.396 C 83.575 21.396,83.184 21.424,83.714 21.457 M121.715 21.457 C 122.338 21.489,123.313 21.489,123.882 21.457 C 124.451 21.424,123.942 21.398,122.750 21.398 C 121.558 21.398,121.093 21.425,121.715 21.457 M232.042 21.458 C 232.935 21.488,234.398 21.488,235.292 21.458 C 236.185 21.428,235.454 21.403,233.667 21.403 C 231.879 21.403,231.148 21.428,232.042 21.458 M274.708 21.458 C 275.602 21.488,277.065 21.488,277.958 21.458 C 278.852 21.428,278.121 21.403,276.333 21.403 C 274.546 21.403,273.815 21.428,274.708 21.458 M287.801 21.458 C 288.745 21.488,290.245 21.487,291.134 21.457 C 292.023 21.428,291.250 21.403,289.417 21.403 C 287.583 21.404,286.856 21.428,287.801 21.458 M303.875 21.458 C 304.769 21.488,306.231 21.488,307.125 21.458 C 308.019 21.428,307.287 21.403,305.500 21.403 C 303.712 21.403,302.981 21.428,303.875 21.458 M345.550 21.458 C 346.449 21.488,347.874 21.488,348.717 21.457 C 349.560 21.427,348.825 21.403,347.083 21.403 C 345.342 21.403,344.652 21.428,345.550 21.458 M360.634 21.458 C 361.578 21.488,363.078 21.487,363.967 21.457 C 364.856 21.428,364.083 21.403,362.250 21.403 C 360.417 21.404,359.689 21.428,360.634 21.458 M367.708 21.457 C 368.419 21.488,369.581 21.488,370.292 21.457 C 371.002 21.426,370.421 21.400,369.000 21.400 C 367.579 21.400,366.998 21.426,367.708 21.457 " stroke="none" fill="#9c9c9c" fill-rule="evenodd"></path></g></svg>